<svg width="320" height="383" viewBox="0 0 320 383" fill="none" xmlns="http://www.w3.org/2000/svg">
<path d="M29.0463 341.682C38.8561 355.066 48.923 373.275 65.878 377C79.1313 377 89.6329 364.937 102.605 362.058C123.855 357.342 138.485 343.603 162.352 348.37C177.626 351.42 197.258 353.399 212.368 348.37C229.06 342.813 244.449 334.596 261.756 330.815C304.506 321.477 290.266 265.816 297.959 235.938C300.146 227.446 302.099 218.542 303.191 209.815C304.393 200.216 310.062 192.13 312.608 182.857C318.02 163.148 306.72 153.148 294.716 139.075C274.751 115.671 258.629 89.5793 239.259 65.7231C229.473 53.6708 218.95 44.3219 207.136 34.2715C197.913 26.4261 190.972 15.3381 181.186 8.35785C175.887 4.57803 166.977 6.47703 160.782 6.47703C147.968 6.47703 136.411 8.0958 124.265 12.5375C118.911 14.4951 110.132 16.5731 105.849 20.4787C99.0142 26.7103 96.9961 39.4233 94.1295 47.7507C84.3833 76.0641 74.1012 102.267 59.3906 128.522C30.9695 179.247 1.59881 228.912 6.54964 289.228C8.17854 309.073 17.3604 325.739 29.0463 341.682Z" fill="white" stroke="black" stroke-width="12" stroke-linecap="round"/>
<ellipse cx="172.5" cy="167.5" rx="12.5" ry="6.5" fill="black"/>
<path d="M132.5 193C138.167 197.333 153.6 204.7 170 199.5" stroke="black" stroke-width="8" stroke-linecap="round"/>
</svg>
