<svg width="829" height="435" viewBox="0 0 829 435" fill="none" xmlns="http://www.w3.org/2000/svg">
<rect x="2.5" y="2.5" width="824" height="429.052" rx="7.5" stroke="#1FCA03" stroke-width="5"/>
<path d="M194.958 161.611H206.864L212.583 124.767L213.098 121.298L213.614 124.767L219.567 161.611H231.473L240.942 93.3608H228.848L224.208 131.611L223.879 134.47L223.458 131.658L217.739 93.3608H208.317L202.926 131.376L202.504 134.189L202.176 131.517L197.629 93.3608H185.583L194.958 161.611ZM281.723 147.361L285.708 161.611H299.583L277.645 93.3608H265.692L243.333 161.611H257.208L261.239 147.361H281.723ZM264.473 136.158L271.645 111.033L278.629 136.158H264.473ZM328.973 136.111L341.817 161.611H355.926V161.001L341.254 132.83C343.129 131.986 344.817 130.986 346.317 129.83C347.848 128.673 349.161 127.314 350.254 125.751C351.317 124.22 352.129 122.486 352.692 120.548C353.286 118.58 353.583 116.376 353.583 113.939C353.583 110.564 352.989 107.595 351.801 105.033C350.645 102.47 348.989 100.33 346.833 98.6108C344.645 96.8921 342.02 95.5952 338.958 94.7202C335.895 93.814 332.473 93.3608 328.692 93.3608H305.817V161.611H318.989V136.111H328.973ZM318.989 125.423V104.048H328.692C330.504 104.048 332.114 104.267 333.52 104.705C334.926 105.142 336.114 105.767 337.083 106.58C338.176 107.486 338.989 108.642 339.52 110.048C340.083 111.423 340.364 113.017 340.364 114.83C340.364 116.33 340.145 117.689 339.708 118.908C339.301 120.126 338.692 121.173 337.879 122.048C336.911 123.142 335.645 123.986 334.083 124.58C332.551 125.142 330.77 125.423 328.739 125.423H318.989ZM408.473 161.611V93.3608H395.254L395.208 137.189L376.364 93.3608H363.098V161.611H376.364V117.595L395.348 161.611H408.473ZM424.036 93.3608V104.001H437.02V151.017H424.036V161.611H463.504V151.017H450.192V104.001H463.504V93.3608H424.036ZM523.786 161.611V93.3608H510.567L510.52 137.189L491.676 93.3608H478.411V161.611H491.676V117.595L510.661 161.611H523.786ZM583.364 153.642L583.317 126.736H558.895V136.58H570.192L570.145 148.955C569.801 149.361 569.286 149.751 568.598 150.126C567.942 150.47 567.176 150.783 566.301 151.064C565.426 151.345 564.489 151.564 563.489 151.72C562.489 151.876 561.473 151.955 560.442 151.955C558.754 151.923 557.239 151.658 555.895 151.158C554.583 150.626 553.426 149.861 552.426 148.861C551.833 148.267 551.286 147.595 550.786 146.845C550.317 146.064 549.895 145.22 549.52 144.314C548.926 142.751 548.458 140.955 548.114 138.923C547.801 136.892 547.645 134.642 547.645 132.173V122.798C547.645 120.83 547.754 119.001 547.973 117.314C548.223 115.626 548.567 114.095 549.004 112.72C549.567 110.939 550.27 109.392 551.114 108.08C551.989 106.767 552.958 105.705 554.02 104.892C554.833 104.298 555.708 103.845 556.645 103.533C557.583 103.22 558.551 103.064 559.551 103.064C561.395 103.064 562.973 103.314 564.286 103.814C565.629 104.283 566.739 105.001 567.614 105.97C568.395 106.845 569.004 107.923 569.442 109.205C569.911 110.486 570.254 111.955 570.473 113.611H583.317C582.973 110.33 582.239 107.376 581.114 104.751C580.02 102.126 578.489 99.8921 576.52 98.0483C574.551 96.2358 572.129 94.8452 569.254 93.8765C566.411 92.9077 563.067 92.4233 559.223 92.4233C556.723 92.4233 554.348 92.7671 552.098 93.4546C549.848 94.1421 547.77 95.1577 545.864 96.5015C544.239 97.689 542.739 99.0952 541.364 100.72C540.02 102.345 538.833 104.173 537.801 106.205C536.708 108.486 535.864 111.033 535.27 113.845C534.676 116.626 534.379 119.642 534.379 122.892V132.173C534.379 135.58 534.676 138.736 535.27 141.642C535.895 144.548 536.801 147.158 537.989 149.47C539.02 151.564 540.27 153.423 541.739 155.048C543.239 156.673 544.895 158.048 546.708 159.173C548.551 160.267 550.567 161.095 552.754 161.658C554.973 162.251 557.333 162.548 559.833 162.548C562.708 162.548 565.395 162.283 567.895 161.751C570.395 161.22 572.661 160.517 574.692 159.642C576.692 158.798 578.426 157.845 579.895 156.783C581.364 155.72 582.52 154.673 583.364 153.642ZM622.692 137.751L623.442 93.3608H610.083L610.833 137.751H622.692ZM609.145 155.236C609.145 157.236 609.817 158.923 611.161 160.298C612.504 161.642 614.364 162.314 616.739 162.314C619.051 162.314 620.895 161.642 622.27 160.298C623.645 158.923 624.333 157.236 624.333 155.236C624.333 153.173 623.645 151.455 622.27 150.08C620.895 148.705 619.051 148.017 616.739 148.017C614.364 148.017 612.504 148.705 611.161 150.08C609.817 151.455 609.145 153.173 609.145 155.236ZM98.442 197.564H94.0982V201.705H90.2388V204.908H94.0982V212.595C94.0982 213.71 94.244 214.668 94.5357 215.47C94.8274 216.262 95.244 216.913 95.7857 217.423C96.317 217.944 96.9576 218.33 97.7076 218.58C98.468 218.819 99.3117 218.939 100.239 218.939C100.718 218.939 101.202 218.913 101.692 218.861C102.192 218.819 102.671 218.757 103.129 218.673C103.588 218.59 104.02 218.486 104.426 218.361C104.833 218.225 105.187 218.069 105.489 217.892L105.067 214.908C104.869 214.96 104.629 215.012 104.348 215.064C104.077 215.116 103.786 215.163 103.473 215.205C103.15 215.257 102.812 215.298 102.458 215.33C102.114 215.361 101.775 215.376 101.442 215.376C100.984 215.376 100.567 215.324 100.192 215.22C99.8274 215.116 99.5149 214.939 99.2545 214.689C98.994 214.449 98.7909 214.126 98.6451 213.72C98.5097 213.304 98.442 212.788 98.442 212.173V204.908H104.754V201.705H98.442V197.564ZM114.036 204.033V194.611H109.692V218.611H114.036V206.408C114.202 206.189 114.385 205.991 114.583 205.814C114.791 205.637 115.02 205.486 115.27 205.361C115.541 205.215 115.843 205.106 116.176 205.033C116.51 204.96 116.869 204.923 117.254 204.923C117.754 204.923 118.202 204.991 118.598 205.126C118.994 205.251 119.333 205.449 119.614 205.72C119.895 205.991 120.109 206.345 120.254 206.783C120.411 207.22 120.489 207.741 120.489 208.345V218.611H124.833V208.376C124.833 207.137 124.682 206.08 124.379 205.205C124.088 204.319 123.676 203.595 123.145 203.033C122.614 202.47 121.978 202.059 121.239 201.798C120.499 201.528 119.687 201.392 118.801 201.392C118.197 201.392 117.624 201.481 117.083 201.658C116.541 201.835 116.046 202.085 115.598 202.408C115.307 202.616 115.025 202.861 114.754 203.142C114.494 203.413 114.254 203.71 114.036 204.033ZM130.067 201.705V205.251H134.879V215.08H130.067V218.611H143.848V215.08H139.27V201.705H130.067ZM134.567 197.376C134.567 197.71 134.624 198.022 134.739 198.314C134.864 198.595 135.036 198.835 135.254 199.033C135.473 199.241 135.734 199.403 136.036 199.517C136.348 199.632 136.692 199.689 137.067 199.689C137.838 199.689 138.447 199.475 138.895 199.048C139.353 198.611 139.583 198.054 139.583 197.376C139.583 196.699 139.353 196.147 138.895 195.72C138.447 195.283 137.838 195.064 137.067 195.064C136.692 195.064 136.348 195.121 136.036 195.236C135.734 195.35 135.473 195.507 135.254 195.705C135.036 195.913 134.864 196.163 134.739 196.455C134.624 196.736 134.567 197.043 134.567 197.376ZM159.036 213.97C159.036 214.231 158.968 214.47 158.833 214.689C158.708 214.908 158.515 215.1 158.254 215.267C157.984 215.434 157.635 215.569 157.208 215.673C156.791 215.767 156.301 215.814 155.739 215.814C155.27 215.814 154.812 215.767 154.364 215.673C153.926 215.58 153.536 215.429 153.192 215.22C152.848 215.022 152.567 214.762 152.348 214.439C152.129 214.106 152.004 213.71 151.973 213.251H147.833C147.833 213.939 147.999 214.626 148.333 215.314C148.676 215.991 149.176 216.595 149.833 217.126C150.489 217.668 151.301 218.106 152.27 218.439C153.249 218.772 154.374 218.939 155.645 218.939C156.801 218.939 157.848 218.814 158.786 218.564C159.723 218.304 160.525 217.944 161.192 217.486C161.848 217.028 162.353 216.486 162.708 215.861C163.072 215.225 163.254 214.533 163.254 213.783C163.254 212.97 163.072 212.272 162.708 211.689C162.353 211.095 161.859 210.59 161.223 210.173C160.588 209.767 159.833 209.434 158.958 209.173C158.083 208.913 157.135 208.699 156.114 208.533C155.405 208.429 154.822 208.309 154.364 208.173C153.905 208.028 153.546 207.866 153.286 207.689C153.015 207.522 152.827 207.335 152.723 207.126C152.619 206.908 152.567 206.673 152.567 206.423C152.567 206.173 152.624 205.939 152.739 205.72C152.864 205.491 153.041 205.293 153.27 205.126C153.52 204.939 153.843 204.793 154.239 204.689C154.635 204.585 155.098 204.533 155.629 204.533C156.254 204.533 156.786 204.611 157.223 204.767C157.671 204.923 158.025 205.132 158.286 205.392C158.473 205.59 158.614 205.814 158.708 206.064C158.801 206.304 158.848 206.564 158.848 206.845H163.192C163.192 206.064 163.02 205.34 162.676 204.673C162.333 204.007 161.838 203.429 161.192 202.939C160.536 202.46 159.739 202.085 158.801 201.814C157.864 201.533 156.807 201.392 155.629 201.392C154.504 201.392 153.494 201.533 152.598 201.814C151.702 202.095 150.942 202.475 150.317 202.955C149.692 203.434 149.213 203.991 148.879 204.626C148.546 205.262 148.379 205.929 148.379 206.626C148.379 207.345 148.541 207.981 148.864 208.533C149.197 209.085 149.655 209.569 150.239 209.986C150.822 210.413 151.52 210.778 152.333 211.08C153.155 211.371 154.062 211.616 155.051 211.814C155.833 211.96 156.478 212.106 156.989 212.251C157.499 212.397 157.911 212.554 158.223 212.72C158.525 212.897 158.734 213.085 158.848 213.283C158.973 213.481 159.036 213.71 159.036 213.97ZM186.629 225.111H190.973V217.142C191.171 217.361 191.379 217.559 191.598 217.736C191.817 217.913 192.046 218.074 192.286 218.22C192.692 218.449 193.129 218.621 193.598 218.736C194.077 218.861 194.598 218.923 195.161 218.923C196.223 218.923 197.166 218.705 197.989 218.267C198.812 217.83 199.504 217.225 200.067 216.455C200.619 215.694 201.036 214.788 201.317 213.736C201.609 212.684 201.754 211.543 201.754 210.314V209.986C201.754 208.705 201.609 207.538 201.317 206.486C201.036 205.423 200.614 204.512 200.051 203.751C199.489 203.001 198.796 202.423 197.973 202.017C197.15 201.6 196.202 201.392 195.129 201.392C194.609 201.392 194.119 201.449 193.661 201.564C193.213 201.668 192.801 201.819 192.426 202.017C192.114 202.184 191.822 202.382 191.551 202.611C191.28 202.83 191.03 203.08 190.801 203.361L190.645 201.705H186.629V225.111ZM197.411 209.986V210.314C197.411 211.012 197.348 211.673 197.223 212.298C197.098 212.913 196.9 213.455 196.629 213.923C196.359 214.392 196.004 214.762 195.567 215.033C195.14 215.304 194.619 215.439 194.004 215.439C193.619 215.439 193.27 215.403 192.958 215.33C192.645 215.246 192.369 215.132 192.129 214.986C191.879 214.83 191.655 214.642 191.458 214.423C191.27 214.205 191.109 213.96 190.973 213.689V206.626C191.119 206.335 191.291 206.08 191.489 205.861C191.697 205.642 191.937 205.46 192.208 205.314C192.447 205.189 192.713 205.095 193.004 205.033C193.296 204.96 193.619 204.923 193.973 204.923C194.588 204.923 195.109 205.054 195.536 205.314C195.973 205.574 196.333 205.929 196.614 206.376C196.885 206.835 197.083 207.376 197.208 208.001C197.343 208.616 197.411 209.278 197.411 209.986ZM216.348 218.611H220.754V218.345C220.536 217.918 220.369 217.408 220.254 216.814C220.14 216.22 220.083 215.47 220.083 214.564V207.314C220.083 206.335 219.9 205.475 219.536 204.736C219.171 203.986 218.666 203.366 218.02 202.876C217.374 202.387 216.609 202.017 215.723 201.767C214.848 201.517 213.9 201.392 212.879 201.392C211.744 201.392 210.734 201.538 209.848 201.83C208.973 202.111 208.234 202.496 207.629 202.986C207.015 203.475 206.546 204.043 206.223 204.689C205.911 205.335 205.754 206.017 205.754 206.736H210.098C210.098 206.434 210.14 206.158 210.223 205.908C210.317 205.658 210.458 205.444 210.645 205.267C210.853 205.069 211.124 204.918 211.458 204.814C211.791 204.699 212.187 204.642 212.645 204.642C213.166 204.642 213.619 204.71 214.004 204.845C214.4 204.97 214.728 205.153 214.989 205.392C215.239 205.621 215.426 205.897 215.551 206.22C215.676 206.533 215.739 206.887 215.739 207.283V208.283H213.317C212.067 208.283 210.958 208.397 209.989 208.626C209.03 208.845 208.223 209.168 207.567 209.595C206.838 210.064 206.291 210.663 205.926 211.392C205.562 212.111 205.379 212.939 205.379 213.876C205.379 214.606 205.525 215.283 205.817 215.908C206.109 216.522 206.515 217.054 207.036 217.501C207.557 217.949 208.176 218.298 208.895 218.548C209.624 218.798 210.421 218.923 211.286 218.923C211.817 218.923 212.312 218.871 212.77 218.767C213.228 218.673 213.65 218.538 214.036 218.361C214.411 218.194 214.754 217.996 215.067 217.767C215.379 217.538 215.655 217.293 215.895 217.033C215.947 217.335 216.01 217.621 216.083 217.892C216.155 218.163 216.244 218.403 216.348 218.611ZM212.208 215.564C211.801 215.564 211.442 215.517 211.129 215.423C210.827 215.319 210.572 215.184 210.364 215.017C210.155 214.84 209.994 214.626 209.879 214.376C209.775 214.116 209.723 213.835 209.723 213.533C209.723 213.147 209.796 212.793 209.942 212.47C210.088 212.137 210.312 211.85 210.614 211.611C210.916 211.382 211.307 211.205 211.786 211.08C212.265 210.944 212.843 210.876 213.52 210.876H215.739V213.783C215.614 214.001 215.442 214.22 215.223 214.439C215.004 214.647 214.744 214.835 214.442 215.001C214.14 215.168 213.801 215.304 213.426 215.408C213.051 215.512 212.645 215.564 212.208 215.564ZM224.567 210.033V210.361C224.567 211.59 224.723 212.731 225.036 213.783C225.359 214.824 225.817 215.725 226.411 216.486C227.004 217.246 227.718 217.845 228.551 218.283C229.395 218.71 230.343 218.923 231.395 218.923C231.926 218.923 232.421 218.866 232.879 218.751C233.348 218.637 233.775 218.475 234.161 218.267C234.421 218.121 234.666 217.955 234.895 217.767C235.124 217.58 235.343 217.371 235.551 217.142V218.111C235.551 218.684 235.468 219.199 235.301 219.658C235.145 220.116 234.916 220.501 234.614 220.814C234.28 221.158 233.864 221.418 233.364 221.595C232.874 221.772 232.312 221.861 231.676 221.861C231.28 221.861 230.895 221.819 230.52 221.736C230.155 221.663 229.801 221.548 229.458 221.392C229.103 221.236 228.765 221.033 228.442 220.783C228.119 220.543 227.817 220.262 227.536 219.939L225.583 222.58C225.947 223.048 226.385 223.449 226.895 223.783C227.405 224.126 227.947 224.408 228.52 224.626C229.093 224.845 229.671 225.007 230.254 225.111C230.838 225.215 231.385 225.267 231.895 225.267C233.083 225.267 234.166 225.106 235.145 224.783C236.135 224.47 236.984 224.007 237.692 223.392C238.39 222.778 238.932 222.022 239.317 221.126C239.713 220.231 239.911 219.21 239.911 218.064V201.705H235.958L235.786 203.314C235.577 203.054 235.348 202.819 235.098 202.611C234.848 202.392 234.577 202.205 234.286 202.048C233.9 201.83 233.468 201.668 232.989 201.564C232.52 201.449 231.999 201.392 231.426 201.392C230.364 201.392 229.411 201.6 228.567 202.017C227.723 202.434 227.004 203.022 226.411 203.783C225.817 204.543 225.359 205.455 225.036 206.517C224.723 207.58 224.567 208.751 224.567 210.033ZM228.926 210.361V210.033C228.926 209.324 228.999 208.663 229.145 208.048C229.291 207.423 229.515 206.876 229.817 206.408C230.109 205.949 230.478 205.59 230.926 205.33C231.374 205.059 231.905 204.923 232.52 204.923C232.853 204.923 233.161 204.955 233.442 205.017C233.734 205.08 233.999 205.168 234.239 205.283C234.52 205.418 234.77 205.595 234.989 205.814C235.208 206.033 235.395 206.288 235.551 206.58V213.736C235.405 213.996 235.234 214.231 235.036 214.439C234.838 214.647 234.609 214.824 234.348 214.97C234.098 215.106 233.817 215.21 233.504 215.283C233.202 215.356 232.864 215.392 232.489 215.392C231.874 215.392 231.343 215.262 230.895 215.001C230.447 214.741 230.077 214.382 229.786 213.923C229.494 213.475 229.275 212.949 229.129 212.345C228.994 211.731 228.926 211.069 228.926 210.361ZM252.426 218.923C254.062 218.923 255.478 218.606 256.676 217.97C257.874 217.335 258.749 216.626 259.301 215.845L257.129 213.501C256.629 214.147 255.978 214.632 255.176 214.955C254.374 215.278 253.546 215.439 252.692 215.439C252.088 215.439 251.53 215.345 251.02 215.158C250.51 214.97 250.057 214.705 249.661 214.361C249.275 214.028 248.968 213.658 248.739 213.251C248.51 212.835 248.322 212.288 248.176 211.611V211.564H259.645V209.72C259.645 208.481 259.473 207.35 259.129 206.33C258.786 205.298 258.286 204.418 257.629 203.689C256.963 202.96 256.15 202.397 255.192 202.001C254.244 201.595 253.161 201.392 251.942 201.392C250.765 201.392 249.676 201.606 248.676 202.033C247.676 202.46 246.812 203.059 246.083 203.83C245.353 204.6 244.786 205.522 244.379 206.595C243.973 207.658 243.77 208.835 243.77 210.126V210.751C243.77 211.887 243.973 212.955 244.379 213.955C244.796 214.944 245.385 215.804 246.145 216.533C246.905 217.272 247.817 217.856 248.879 218.283C249.942 218.71 251.124 218.923 252.426 218.923ZM251.911 204.908C252.463 204.908 252.947 204.996 253.364 205.173C253.791 205.34 254.15 205.569 254.442 205.861C254.734 206.163 254.963 206.517 255.129 206.923C255.296 207.33 255.379 207.762 255.379 208.22V208.564H248.254C248.359 208.012 248.515 207.512 248.723 207.064C248.932 206.616 249.192 206.231 249.504 205.908C249.807 205.585 250.161 205.34 250.567 205.173C250.973 204.996 251.421 204.908 251.911 204.908ZM285.364 201.705H281.629V218.611H285.583V205.955C285.635 205.819 285.692 205.694 285.754 205.58C285.817 205.465 285.89 205.366 285.973 205.283C286.088 205.168 286.218 205.08 286.364 205.017C286.51 204.955 286.676 204.923 286.864 204.923C287.03 204.923 287.187 204.949 287.333 205.001C287.478 205.043 287.609 205.121 287.723 205.236C287.827 205.35 287.911 205.512 287.973 205.72C288.036 205.929 288.067 206.194 288.067 206.517V218.611H291.895V206.142C291.895 206.017 291.895 205.918 291.895 205.845C291.895 205.772 291.895 205.725 291.895 205.705C291.947 205.59 292.01 205.491 292.083 205.408C292.155 205.314 292.239 205.231 292.333 205.158C292.447 205.085 292.567 205.028 292.692 204.986C292.827 204.944 292.978 204.923 293.145 204.923C293.301 204.923 293.452 204.949 293.598 205.001C293.754 205.043 293.89 205.121 294.004 205.236C294.119 205.361 294.208 205.528 294.27 205.736C294.343 205.944 294.379 206.21 294.379 206.533V218.611H298.333V206.548C298.333 205.611 298.239 204.819 298.051 204.173C297.874 203.517 297.624 202.981 297.301 202.564C296.968 202.158 296.577 201.861 296.129 201.673C295.692 201.486 295.218 201.392 294.708 201.392C294.301 201.392 293.926 201.444 293.583 201.548C293.239 201.653 292.932 201.798 292.661 201.986C292.442 202.132 292.239 202.309 292.051 202.517C291.874 202.715 291.713 202.939 291.567 203.189C291.473 202.929 291.359 202.699 291.223 202.501C291.098 202.293 290.947 202.116 290.77 201.97C290.541 201.772 290.27 201.626 289.958 201.533C289.645 201.439 289.291 201.392 288.895 201.392C288.083 201.392 287.39 201.606 286.817 202.033C286.254 202.449 285.812 203.022 285.489 203.751L285.364 201.705ZM312.442 218.611H316.848V218.345C316.629 217.918 316.463 217.408 316.348 216.814C316.234 216.22 316.176 215.47 316.176 214.564V207.314C316.176 206.335 315.994 205.475 315.629 204.736C315.265 203.986 314.76 203.366 314.114 202.876C313.468 202.387 312.702 202.017 311.817 201.767C310.942 201.517 309.994 201.392 308.973 201.392C307.838 201.392 306.827 201.538 305.942 201.83C305.067 202.111 304.327 202.496 303.723 202.986C303.109 203.475 302.64 204.043 302.317 204.689C302.004 205.335 301.848 206.017 301.848 206.736H306.192C306.192 206.434 306.234 206.158 306.317 205.908C306.411 205.658 306.551 205.444 306.739 205.267C306.947 205.069 307.218 204.918 307.551 204.814C307.885 204.699 308.28 204.642 308.739 204.642C309.26 204.642 309.713 204.71 310.098 204.845C310.494 204.97 310.822 205.153 311.083 205.392C311.333 205.621 311.52 205.897 311.645 206.22C311.77 206.533 311.833 206.887 311.833 207.283V208.283H309.411C308.161 208.283 307.051 208.397 306.083 208.626C305.124 208.845 304.317 209.168 303.661 209.595C302.932 210.064 302.385 210.663 302.02 211.392C301.655 212.111 301.473 212.939 301.473 213.876C301.473 214.606 301.619 215.283 301.911 215.908C302.202 216.522 302.609 217.054 303.129 217.501C303.65 217.949 304.27 218.298 304.989 218.548C305.718 218.798 306.515 218.923 307.379 218.923C307.911 218.923 308.405 218.871 308.864 218.767C309.322 218.673 309.744 218.538 310.129 218.361C310.504 218.194 310.848 217.996 311.161 217.767C311.473 217.538 311.749 217.293 311.989 217.033C312.041 217.335 312.103 217.621 312.176 217.892C312.249 218.163 312.338 218.403 312.442 218.611ZM308.301 215.564C307.895 215.564 307.536 215.517 307.223 215.423C306.921 215.319 306.666 215.184 306.458 215.017C306.249 214.84 306.088 214.626 305.973 214.376C305.869 214.116 305.817 213.835 305.817 213.533C305.817 213.147 305.89 212.793 306.036 212.47C306.182 212.137 306.405 211.85 306.708 211.611C307.01 211.382 307.4 211.205 307.879 211.08C308.359 210.944 308.937 210.876 309.614 210.876H311.833V213.783C311.708 214.001 311.536 214.22 311.317 214.439C311.098 214.647 310.838 214.835 310.536 215.001C310.234 215.168 309.895 215.304 309.52 215.408C309.145 215.512 308.739 215.564 308.301 215.564ZM323.77 225.439C324.645 225.439 325.4 225.293 326.036 225.001C326.682 224.71 327.228 224.35 327.676 223.923C328.124 223.496 328.494 223.033 328.786 222.533C329.088 222.033 329.333 221.569 329.52 221.142L338.098 201.705H333.301L329.442 211.642L328.801 213.33L328.333 211.611L324.458 201.705H319.708L326.864 217.892L325.864 219.751C325.739 219.981 325.629 220.158 325.536 220.283C325.452 220.408 325.317 220.595 325.129 220.845C324.942 221.095 324.713 221.324 324.442 221.533C324.182 221.751 323.879 221.861 323.536 221.861C323.369 221.861 323.145 221.85 322.864 221.83C322.593 221.819 322.369 221.814 322.192 221.814L321.661 225.126C322.036 225.231 322.374 225.309 322.676 225.361C322.989 225.413 323.353 225.439 323.77 225.439ZM367.02 215.455C366.322 215.455 365.744 215.314 365.286 215.033C364.838 214.751 364.484 214.376 364.223 213.908C363.952 213.449 363.765 212.918 363.661 212.314C363.557 211.699 363.504 211.064 363.504 210.408V209.939C363.504 209.293 363.557 208.668 363.661 208.064C363.775 207.46 363.968 206.923 364.239 206.455C364.499 205.986 364.853 205.611 365.301 205.33C365.749 205.048 366.317 204.908 367.004 204.908C367.473 204.908 367.905 204.991 368.301 205.158C368.697 205.314 369.036 205.528 369.317 205.798C369.598 206.069 369.812 206.392 369.958 206.767C370.103 207.142 370.166 207.538 370.145 207.955H374.239C374.26 206.955 374.093 206.054 373.739 205.251C373.385 204.439 372.89 203.746 372.254 203.173C371.609 202.611 370.843 202.173 369.958 201.861C369.072 201.548 368.109 201.392 367.067 201.392C365.765 201.392 364.619 201.616 363.629 202.064C362.65 202.512 361.827 203.121 361.161 203.892C360.494 204.663 359.994 205.569 359.661 206.611C359.327 207.642 359.161 208.751 359.161 209.939V210.408C359.161 211.595 359.327 212.71 359.661 213.751C360.004 214.783 360.51 215.684 361.176 216.455C361.833 217.225 362.655 217.835 363.645 218.283C364.635 218.72 365.786 218.939 367.098 218.939C368.067 218.939 368.984 218.788 369.848 218.486C370.723 218.173 371.489 217.746 372.145 217.205C372.801 216.663 373.317 216.017 373.692 215.267C374.077 214.517 374.26 213.705 374.239 212.83H370.145C370.166 213.225 370.093 213.585 369.926 213.908C369.77 214.231 369.546 214.507 369.254 214.736C368.963 214.965 368.624 215.142 368.239 215.267C367.853 215.392 367.447 215.455 367.02 215.455ZM389.317 218.611H393.723V218.345C393.504 217.918 393.338 217.408 393.223 216.814C393.109 216.22 393.051 215.47 393.051 214.564V207.314C393.051 206.335 392.869 205.475 392.504 204.736C392.14 203.986 391.635 203.366 390.989 202.876C390.343 202.387 389.577 202.017 388.692 201.767C387.817 201.517 386.869 201.392 385.848 201.392C384.713 201.392 383.702 201.538 382.817 201.83C381.942 202.111 381.202 202.496 380.598 202.986C379.984 203.475 379.515 204.043 379.192 204.689C378.879 205.335 378.723 206.017 378.723 206.736H383.067C383.067 206.434 383.109 206.158 383.192 205.908C383.286 205.658 383.426 205.444 383.614 205.267C383.822 205.069 384.093 204.918 384.426 204.814C384.76 204.699 385.155 204.642 385.614 204.642C386.135 204.642 386.588 204.71 386.973 204.845C387.369 204.97 387.697 205.153 387.958 205.392C388.208 205.621 388.395 205.897 388.52 206.22C388.645 206.533 388.708 206.887 388.708 207.283V208.283H386.286C385.036 208.283 383.926 208.397 382.958 208.626C381.999 208.845 381.192 209.168 380.536 209.595C379.807 210.064 379.26 210.663 378.895 211.392C378.53 212.111 378.348 212.939 378.348 213.876C378.348 214.606 378.494 215.283 378.786 215.908C379.077 216.522 379.484 217.054 380.004 217.501C380.525 217.949 381.145 218.298 381.864 218.548C382.593 218.798 383.39 218.923 384.254 218.923C384.786 218.923 385.28 218.871 385.739 218.767C386.197 218.673 386.619 218.538 387.004 218.361C387.379 218.194 387.723 217.996 388.036 217.767C388.348 217.538 388.624 217.293 388.864 217.033C388.916 217.335 388.978 217.621 389.051 217.892C389.124 218.163 389.213 218.403 389.317 218.611ZM385.176 215.564C384.77 215.564 384.411 215.517 384.098 215.423C383.796 215.319 383.541 215.184 383.333 215.017C383.124 214.84 382.963 214.626 382.848 214.376C382.744 214.116 382.692 213.835 382.692 213.533C382.692 213.147 382.765 212.793 382.911 212.47C383.057 212.137 383.28 211.85 383.583 211.611C383.885 211.382 384.275 211.205 384.754 211.08C385.234 210.944 385.812 210.876 386.489 210.876H388.708V213.783C388.583 214.001 388.411 214.22 388.192 214.439C387.973 214.647 387.713 214.835 387.411 215.001C387.109 215.168 386.77 215.304 386.395 215.408C386.02 215.512 385.614 215.564 385.176 215.564ZM409.004 218.611H412.942V201.705H408.583V213.564C408.447 213.835 408.286 214.08 408.098 214.298C407.911 214.517 407.697 214.705 407.458 214.861C407.176 215.038 406.848 215.173 406.473 215.267C406.109 215.361 405.697 215.408 405.239 215.408C404.728 215.408 404.296 215.345 403.942 215.22C403.588 215.095 403.301 214.887 403.083 214.595C402.864 214.314 402.702 213.939 402.598 213.47C402.504 213.001 402.458 212.423 402.458 211.736V201.705H398.114V211.705C398.114 212.986 398.254 214.085 398.536 215.001C398.827 215.908 399.234 216.653 399.754 217.236C400.275 217.83 400.9 218.262 401.629 218.533C402.359 218.804 403.161 218.939 404.036 218.939C404.994 218.939 405.874 218.699 406.676 218.22C407.489 217.741 408.182 217.08 408.754 216.236L409.004 218.611ZM428.098 213.97C428.098 214.231 428.03 214.47 427.895 214.689C427.77 214.908 427.577 215.1 427.317 215.267C427.046 215.434 426.697 215.569 426.27 215.673C425.853 215.767 425.364 215.814 424.801 215.814C424.333 215.814 423.874 215.767 423.426 215.673C422.989 215.58 422.598 215.429 422.254 215.22C421.911 215.022 421.629 214.762 421.411 214.439C421.192 214.106 421.067 213.71 421.036 213.251H416.895C416.895 213.939 417.062 214.626 417.395 215.314C417.739 215.991 418.239 216.595 418.895 217.126C419.551 217.668 420.364 218.106 421.333 218.439C422.312 218.772 423.437 218.939 424.708 218.939C425.864 218.939 426.911 218.814 427.848 218.564C428.786 218.304 429.588 217.944 430.254 217.486C430.911 217.028 431.416 216.486 431.77 215.861C432.135 215.225 432.317 214.533 432.317 213.783C432.317 212.97 432.135 212.272 431.77 211.689C431.416 211.095 430.921 210.59 430.286 210.173C429.65 209.767 428.895 209.434 428.02 209.173C427.145 208.913 426.197 208.699 425.176 208.533C424.468 208.429 423.885 208.309 423.426 208.173C422.968 208.028 422.609 207.866 422.348 207.689C422.077 207.522 421.89 207.335 421.786 207.126C421.682 206.908 421.629 206.673 421.629 206.423C421.629 206.173 421.687 205.939 421.801 205.72C421.926 205.491 422.103 205.293 422.333 205.126C422.583 204.939 422.905 204.793 423.301 204.689C423.697 204.585 424.161 204.533 424.692 204.533C425.317 204.533 425.848 204.611 426.286 204.767C426.734 204.923 427.088 205.132 427.348 205.392C427.536 205.59 427.676 205.814 427.77 206.064C427.864 206.304 427.911 206.564 427.911 206.845H432.254C432.254 206.064 432.083 205.34 431.739 204.673C431.395 204.007 430.9 203.429 430.254 202.939C429.598 202.46 428.801 202.085 427.864 201.814C426.926 201.533 425.869 201.392 424.692 201.392C423.567 201.392 422.557 201.533 421.661 201.814C420.765 202.095 420.004 202.475 419.379 202.955C418.754 203.434 418.275 203.991 417.942 204.626C417.609 205.262 417.442 205.929 417.442 206.626C417.442 207.345 417.603 207.981 417.926 208.533C418.26 209.085 418.718 209.569 419.301 209.986C419.885 210.413 420.583 210.778 421.395 211.08C422.218 211.371 423.124 211.616 424.114 211.814C424.895 211.96 425.541 212.106 426.051 212.251C426.562 212.397 426.973 212.554 427.286 212.72C427.588 212.897 427.796 213.085 427.911 213.283C428.036 213.481 428.098 213.71 428.098 213.97ZM444.614 218.923C446.249 218.923 447.666 218.606 448.864 217.97C450.062 217.335 450.937 216.626 451.489 215.845L449.317 213.501C448.817 214.147 448.166 214.632 447.364 214.955C446.562 215.278 445.734 215.439 444.879 215.439C444.275 215.439 443.718 215.345 443.208 215.158C442.697 214.97 442.244 214.705 441.848 214.361C441.463 214.028 441.155 213.658 440.926 213.251C440.697 212.835 440.51 212.288 440.364 211.611V211.564H451.833V209.72C451.833 208.481 451.661 207.35 451.317 206.33C450.973 205.298 450.473 204.418 449.817 203.689C449.15 202.96 448.338 202.397 447.379 202.001C446.432 201.595 445.348 201.392 444.129 201.392C442.952 201.392 441.864 201.606 440.864 202.033C439.864 202.46 438.999 203.059 438.27 203.83C437.541 204.6 436.973 205.522 436.567 206.595C436.161 207.658 435.958 208.835 435.958 210.126V210.751C435.958 211.887 436.161 212.955 436.567 213.955C436.984 214.944 437.572 215.804 438.333 216.533C439.093 217.272 440.004 217.856 441.067 218.283C442.129 218.71 443.312 218.923 444.614 218.923ZM444.098 204.908C444.65 204.908 445.135 204.996 445.551 205.173C445.978 205.34 446.338 205.569 446.629 205.861C446.921 206.163 447.15 206.517 447.317 206.923C447.484 207.33 447.567 207.762 447.567 208.22V208.564H440.442C440.546 208.012 440.702 207.512 440.911 207.064C441.119 206.616 441.379 206.231 441.692 205.908C441.994 205.585 442.348 205.34 442.754 205.173C443.161 204.996 443.609 204.908 444.098 204.908ZM476.004 201.705V205.251H480.817V215.08H476.004V218.611H489.786V215.08H485.208V201.705H476.004ZM480.504 197.376C480.504 197.71 480.562 198.022 480.676 198.314C480.801 198.595 480.973 198.835 481.192 199.033C481.411 199.241 481.671 199.403 481.973 199.517C482.286 199.632 482.629 199.689 483.004 199.689C483.775 199.689 484.385 199.475 484.833 199.048C485.291 198.611 485.52 198.054 485.52 197.376C485.52 196.699 485.291 196.147 484.833 195.72C484.385 195.283 483.775 195.064 483.004 195.064C482.629 195.064 482.286 195.121 481.973 195.236C481.671 195.35 481.411 195.507 481.192 195.705C480.973 195.913 480.801 196.163 480.676 196.455C480.562 196.736 480.504 197.043 480.504 197.376ZM504.973 213.97C504.973 214.231 504.905 214.47 504.77 214.689C504.645 214.908 504.452 215.1 504.192 215.267C503.921 215.434 503.572 215.569 503.145 215.673C502.728 215.767 502.239 215.814 501.676 215.814C501.208 215.814 500.749 215.767 500.301 215.673C499.864 215.58 499.473 215.429 499.129 215.22C498.786 215.022 498.504 214.762 498.286 214.439C498.067 214.106 497.942 213.71 497.911 213.251H493.77C493.77 213.939 493.937 214.626 494.27 215.314C494.614 215.991 495.114 216.595 495.77 217.126C496.426 217.668 497.239 218.106 498.208 218.439C499.187 218.772 500.312 218.939 501.583 218.939C502.739 218.939 503.786 218.814 504.723 218.564C505.661 218.304 506.463 217.944 507.129 217.486C507.786 217.028 508.291 216.486 508.645 215.861C509.01 215.225 509.192 214.533 509.192 213.783C509.192 212.97 509.01 212.272 508.645 211.689C508.291 211.095 507.796 210.59 507.161 210.173C506.525 209.767 505.77 209.434 504.895 209.173C504.02 208.913 503.072 208.699 502.051 208.533C501.343 208.429 500.76 208.309 500.301 208.173C499.843 208.028 499.484 207.866 499.223 207.689C498.952 207.522 498.765 207.335 498.661 207.126C498.557 206.908 498.504 206.673 498.504 206.423C498.504 206.173 498.562 205.939 498.676 205.72C498.801 205.491 498.978 205.293 499.208 205.126C499.458 204.939 499.78 204.793 500.176 204.689C500.572 204.585 501.036 204.533 501.567 204.533C502.192 204.533 502.723 204.611 503.161 204.767C503.609 204.923 503.963 205.132 504.223 205.392C504.411 205.59 504.551 205.814 504.645 206.064C504.739 206.304 504.786 206.564 504.786 206.845H509.129C509.129 206.064 508.958 205.34 508.614 204.673C508.27 204.007 507.775 203.429 507.129 202.939C506.473 202.46 505.676 202.085 504.739 201.814C503.801 201.533 502.744 201.392 501.567 201.392C500.442 201.392 499.432 201.533 498.536 201.814C497.64 202.095 496.879 202.475 496.254 202.955C495.629 203.434 495.15 203.991 494.817 204.626C494.484 205.262 494.317 205.929 494.317 206.626C494.317 207.345 494.478 207.981 494.801 208.533C495.135 209.085 495.593 209.569 496.176 209.986C496.76 210.413 497.458 210.778 498.27 211.08C499.093 211.371 499.999 211.616 500.989 211.814C501.77 211.96 502.416 212.106 502.926 212.251C503.437 212.397 503.848 212.554 504.161 212.72C504.463 212.897 504.671 213.085 504.786 213.283C504.911 213.481 504.973 213.71 504.973 213.97ZM524.192 213.97C524.192 214.231 524.124 214.47 523.989 214.689C523.864 214.908 523.671 215.1 523.411 215.267C523.14 215.434 522.791 215.569 522.364 215.673C521.947 215.767 521.458 215.814 520.895 215.814C520.426 215.814 519.968 215.767 519.52 215.673C519.083 215.58 518.692 215.429 518.348 215.22C518.004 215.022 517.723 214.762 517.504 214.439C517.286 214.106 517.161 213.71 517.129 213.251H512.989C512.989 213.939 513.155 214.626 513.489 215.314C513.833 215.991 514.333 216.595 514.989 217.126C515.645 217.668 516.458 218.106 517.426 218.439C518.405 218.772 519.53 218.939 520.801 218.939C521.958 218.939 523.004 218.814 523.942 218.564C524.879 218.304 525.682 217.944 526.348 217.486C527.004 217.028 527.51 216.486 527.864 215.861C528.228 215.225 528.411 214.533 528.411 213.783C528.411 212.97 528.228 212.272 527.864 211.689C527.51 211.095 527.015 210.59 526.379 210.173C525.744 209.767 524.989 209.434 524.114 209.173C523.239 208.913 522.291 208.699 521.27 208.533C520.562 208.429 519.978 208.309 519.52 208.173C519.062 208.028 518.702 207.866 518.442 207.689C518.171 207.522 517.984 207.335 517.879 207.126C517.775 206.908 517.723 206.673 517.723 206.423C517.723 206.173 517.78 205.939 517.895 205.72C518.02 205.491 518.197 205.293 518.426 205.126C518.676 204.939 518.999 204.793 519.395 204.689C519.791 204.585 520.254 204.533 520.786 204.533C521.411 204.533 521.942 204.611 522.379 204.767C522.827 204.923 523.182 205.132 523.442 205.392C523.629 205.59 523.77 205.814 523.864 206.064C523.958 206.304 524.004 206.564 524.004 206.845H528.348C528.348 206.064 528.176 205.34 527.833 204.673C527.489 204.007 526.994 203.429 526.348 202.939C525.692 202.46 524.895 202.085 523.958 201.814C523.02 201.533 521.963 201.392 520.786 201.392C519.661 201.392 518.65 201.533 517.754 201.814C516.859 202.095 516.098 202.475 515.473 202.955C514.848 203.434 514.369 203.991 514.036 204.626C513.702 205.262 513.536 205.929 513.536 206.626C513.536 207.345 513.697 207.981 514.02 208.533C514.353 209.085 514.812 209.569 515.395 209.986C515.978 210.413 516.676 210.778 517.489 211.08C518.312 211.371 519.218 211.616 520.208 211.814C520.989 211.96 521.635 212.106 522.145 212.251C522.655 212.397 523.067 212.554 523.379 212.72C523.682 212.897 523.89 213.085 524.004 213.283C524.129 213.481 524.192 213.71 524.192 213.97ZM543.536 218.611H547.473V201.705H543.114V213.564C542.978 213.835 542.817 214.08 542.629 214.298C542.442 214.517 542.228 214.705 541.989 214.861C541.708 215.038 541.379 215.173 541.004 215.267C540.64 215.361 540.228 215.408 539.77 215.408C539.26 215.408 538.827 215.345 538.473 215.22C538.119 215.095 537.833 214.887 537.614 214.595C537.395 214.314 537.234 213.939 537.129 213.47C537.036 213.001 536.989 212.423 536.989 211.736V201.705H532.645V211.705C532.645 212.986 532.786 214.085 533.067 215.001C533.359 215.908 533.765 216.653 534.286 217.236C534.807 217.83 535.432 218.262 536.161 218.533C536.89 218.804 537.692 218.939 538.567 218.939C539.525 218.939 540.405 218.699 541.208 218.22C542.02 217.741 542.713 217.08 543.286 216.236L543.536 218.611ZM559.926 218.923C561.562 218.923 562.978 218.606 564.176 217.97C565.374 217.335 566.249 216.626 566.801 215.845L564.629 213.501C564.129 214.147 563.478 214.632 562.676 214.955C561.874 215.278 561.046 215.439 560.192 215.439C559.588 215.439 559.03 215.345 558.52 215.158C558.01 214.97 557.557 214.705 557.161 214.361C556.775 214.028 556.468 213.658 556.239 213.251C556.01 212.835 555.822 212.288 555.676 211.611V211.564H567.145V209.72C567.145 208.481 566.973 207.35 566.629 206.33C566.286 205.298 565.786 204.418 565.129 203.689C564.463 202.96 563.65 202.397 562.692 202.001C561.744 201.595 560.661 201.392 559.442 201.392C558.265 201.392 557.176 201.606 556.176 202.033C555.176 202.46 554.312 203.059 553.583 203.83C552.853 204.6 552.286 205.522 551.879 206.595C551.473 207.658 551.27 208.835 551.27 210.126V210.751C551.27 211.887 551.473 212.955 551.879 213.955C552.296 214.944 552.885 215.804 553.645 216.533C554.405 217.272 555.317 217.856 556.379 218.283C557.442 218.71 558.624 218.923 559.926 218.923ZM559.411 204.908C559.963 204.908 560.447 204.996 560.864 205.173C561.291 205.34 561.65 205.569 561.942 205.861C562.234 206.163 562.463 206.517 562.629 206.923C562.796 207.33 562.879 207.762 562.879 208.22V208.564H555.754C555.859 208.012 556.015 207.512 556.223 207.064C556.432 206.616 556.692 206.231 557.004 205.908C557.307 205.585 557.661 205.34 558.067 205.173C558.473 204.996 558.921 204.908 559.411 204.908ZM581.848 213.97C581.848 214.231 581.78 214.47 581.645 214.689C581.52 214.908 581.327 215.1 581.067 215.267C580.796 215.434 580.447 215.569 580.02 215.673C579.603 215.767 579.114 215.814 578.551 215.814C578.083 215.814 577.624 215.767 577.176 215.673C576.739 215.58 576.348 215.429 576.004 215.22C575.661 215.022 575.379 214.762 575.161 214.439C574.942 214.106 574.817 213.71 574.786 213.251H570.645C570.645 213.939 570.812 214.626 571.145 215.314C571.489 215.991 571.989 216.595 572.645 217.126C573.301 217.668 574.114 218.106 575.083 218.439C576.062 218.772 577.187 218.939 578.458 218.939C579.614 218.939 580.661 218.814 581.598 218.564C582.536 218.304 583.338 217.944 584.004 217.486C584.661 217.028 585.166 216.486 585.52 215.861C585.885 215.225 586.067 214.533 586.067 213.783C586.067 212.97 585.885 212.272 585.52 211.689C585.166 211.095 584.671 210.59 584.036 210.173C583.4 209.767 582.645 209.434 581.77 209.173C580.895 208.913 579.947 208.699 578.926 208.533C578.218 208.429 577.635 208.309 577.176 208.173C576.718 208.028 576.359 207.866 576.098 207.689C575.827 207.522 575.64 207.335 575.536 207.126C575.432 206.908 575.379 206.673 575.379 206.423C575.379 206.173 575.437 205.939 575.551 205.72C575.676 205.491 575.853 205.293 576.083 205.126C576.333 204.939 576.655 204.793 577.051 204.689C577.447 204.585 577.911 204.533 578.442 204.533C579.067 204.533 579.598 204.611 580.036 204.767C580.484 204.923 580.838 205.132 581.098 205.392C581.286 205.59 581.426 205.814 581.52 206.064C581.614 206.304 581.661 206.564 581.661 206.845H586.004C586.004 206.064 585.833 205.34 585.489 204.673C585.145 204.007 584.65 203.429 584.004 202.939C583.348 202.46 582.551 202.085 581.614 201.814C580.676 201.533 579.619 201.392 578.442 201.392C577.317 201.392 576.307 201.533 575.411 201.814C574.515 202.095 573.754 202.475 573.129 202.955C572.504 203.434 572.025 203.991 571.692 204.626C571.359 205.262 571.192 205.929 571.192 206.626C571.192 207.345 571.353 207.981 571.676 208.533C572.01 209.085 572.468 209.569 573.051 209.986C573.635 210.413 574.333 210.778 575.145 211.08C575.968 211.371 576.874 211.616 577.864 211.814C578.645 211.96 579.291 212.106 579.801 212.251C580.312 212.397 580.723 212.554 581.036 212.72C581.338 212.897 581.546 213.085 581.661 213.283C581.786 213.481 581.848 213.71 581.848 213.97ZM617.348 197.564H613.004V201.705H609.145V204.908H613.004V212.595C613.004 213.71 613.15 214.668 613.442 215.47C613.734 216.262 614.15 216.913 614.692 217.423C615.223 217.944 615.864 218.33 616.614 218.58C617.374 218.819 618.218 218.939 619.145 218.939C619.624 218.939 620.109 218.913 620.598 218.861C621.098 218.819 621.577 218.757 622.036 218.673C622.494 218.59 622.926 218.486 623.333 218.361C623.739 218.225 624.093 218.069 624.395 217.892L623.973 214.908C623.775 214.96 623.536 215.012 623.254 215.064C622.984 215.116 622.692 215.163 622.379 215.205C622.057 215.257 621.718 215.298 621.364 215.33C621.02 215.361 620.682 215.376 620.348 215.376C619.89 215.376 619.473 215.324 619.098 215.22C618.734 215.116 618.421 214.939 618.161 214.689C617.9 214.449 617.697 214.126 617.551 213.72C617.416 213.304 617.348 212.788 617.348 212.173V204.908H623.661V201.705H617.348V197.564ZM628.004 210.001V210.33C628.004 211.569 628.182 212.715 628.536 213.767C628.89 214.809 629.411 215.715 630.098 216.486C630.775 217.257 631.609 217.861 632.598 218.298C633.598 218.725 634.734 218.939 636.004 218.939C637.265 218.939 638.39 218.725 639.379 218.298C640.369 217.861 641.202 217.257 641.879 216.486C642.557 215.715 643.072 214.809 643.426 213.767C643.78 212.715 643.958 211.569 643.958 210.33V210.001C643.958 208.772 643.78 207.637 643.426 206.595C643.072 205.543 642.557 204.632 641.879 203.861C641.192 203.09 640.353 202.486 639.364 202.048C638.374 201.611 637.244 201.392 635.973 201.392C634.702 201.392 633.572 201.611 632.583 202.048C631.603 202.486 630.775 203.09 630.098 203.861C629.411 204.632 628.89 205.543 628.536 206.595C628.182 207.637 628.004 208.772 628.004 210.001ZM632.348 210.33V210.001C632.348 209.314 632.416 208.663 632.551 208.048C632.687 207.434 632.9 206.892 633.192 206.423C633.484 205.955 633.859 205.585 634.317 205.314C634.775 205.043 635.327 204.908 635.973 204.908C636.629 204.908 637.187 205.043 637.645 205.314C638.103 205.585 638.478 205.955 638.77 206.423C639.051 206.892 639.26 207.434 639.395 208.048C639.53 208.663 639.598 209.314 639.598 210.001V210.33C639.598 211.038 639.53 211.705 639.395 212.33C639.26 212.944 639.051 213.481 638.77 213.939C638.478 214.408 638.103 214.778 637.645 215.048C637.187 215.319 636.64 215.455 636.004 215.455C635.348 215.455 634.786 215.319 634.317 215.048C633.859 214.778 633.484 214.408 633.192 213.939C632.9 213.481 632.687 212.944 632.551 212.33C632.416 211.705 632.348 211.038 632.348 210.33ZM669.708 225.439C670.583 225.439 671.338 225.293 671.973 225.001C672.619 224.71 673.166 224.35 673.614 223.923C674.062 223.496 674.432 223.033 674.723 222.533C675.025 222.033 675.27 221.569 675.458 221.142L684.036 201.705H679.239L675.379 211.642L674.739 213.33L674.27 211.611L670.395 201.705H665.645L672.801 217.892L671.801 219.751C671.676 219.981 671.567 220.158 671.473 220.283C671.39 220.408 671.254 220.595 671.067 220.845C670.879 221.095 670.65 221.324 670.379 221.533C670.119 221.751 669.817 221.861 669.473 221.861C669.307 221.861 669.083 221.85 668.801 221.83C668.53 221.819 668.307 221.814 668.129 221.814L667.598 225.126C667.973 225.231 668.312 225.309 668.614 225.361C668.926 225.413 669.291 225.439 669.708 225.439ZM685.661 210.001V210.33C685.661 211.569 685.838 212.715 686.192 213.767C686.546 214.809 687.067 215.715 687.754 216.486C688.432 217.257 689.265 217.861 690.254 218.298C691.254 218.725 692.39 218.939 693.661 218.939C694.921 218.939 696.046 218.725 697.036 218.298C698.025 217.861 698.859 217.257 699.536 216.486C700.213 215.715 700.728 214.809 701.083 213.767C701.437 212.715 701.614 211.569 701.614 210.33V210.001C701.614 208.772 701.437 207.637 701.083 206.595C700.728 205.543 700.213 204.632 699.536 203.861C698.848 203.09 698.01 202.486 697.02 202.048C696.03 201.611 694.9 201.392 693.629 201.392C692.359 201.392 691.228 201.611 690.239 202.048C689.26 202.486 688.432 203.09 687.754 203.861C687.067 204.632 686.546 205.543 686.192 206.595C685.838 207.637 685.661 208.772 685.661 210.001ZM690.004 210.33V210.001C690.004 209.314 690.072 208.663 690.208 208.048C690.343 207.434 690.557 206.892 690.848 206.423C691.14 205.955 691.515 205.585 691.973 205.314C692.432 205.043 692.984 204.908 693.629 204.908C694.286 204.908 694.843 205.043 695.301 205.314C695.76 205.585 696.135 205.955 696.426 206.423C696.708 206.892 696.916 207.434 697.051 208.048C697.187 208.663 697.254 209.314 697.254 210.001V210.33C697.254 211.038 697.187 211.705 697.051 212.33C696.916 212.944 696.708 213.481 696.426 213.939C696.135 214.408 695.76 214.778 695.301 215.048C694.843 215.319 694.296 215.455 693.661 215.455C693.004 215.455 692.442 215.319 691.973 215.048C691.515 214.778 691.14 214.408 690.848 213.939C690.557 213.481 690.343 212.944 690.208 212.33C690.072 211.705 690.004 211.038 690.004 210.33ZM716.504 218.611H720.442V201.705H716.083V213.564C715.947 213.835 715.786 214.08 715.598 214.298C715.411 214.517 715.197 214.705 714.958 214.861C714.676 215.038 714.348 215.173 713.973 215.267C713.609 215.361 713.197 215.408 712.739 215.408C712.228 215.408 711.796 215.345 711.442 215.22C711.088 215.095 710.801 214.887 710.583 214.595C710.364 214.314 710.202 213.939 710.098 213.47C710.004 213.001 709.958 212.423 709.958 211.736V201.705H705.614V211.705C705.614 212.986 705.754 214.085 706.036 215.001C706.327 215.908 706.734 216.653 707.254 217.236C707.775 217.83 708.4 218.262 709.129 218.533C709.859 218.804 710.661 218.939 711.536 218.939C712.494 218.939 713.374 218.699 714.176 218.22C714.989 217.741 715.682 217.08 716.254 216.236L716.504 218.611ZM736.833 201.392C735.697 201.392 734.65 201.668 733.692 202.22C732.734 202.762 731.911 203.512 731.223 204.47L731.192 204.095L731.02 201.705H726.973V218.611H731.317V208.455C731.515 207.975 731.765 207.559 732.067 207.205C732.369 206.85 732.734 206.559 733.161 206.33C733.515 206.132 733.916 205.986 734.364 205.892C734.822 205.788 735.333 205.736 735.895 205.736C736.437 205.736 737.004 205.772 737.598 205.845C738.202 205.908 738.791 206.007 739.364 206.142L740.004 201.814C739.661 201.71 739.208 201.616 738.645 201.533C738.093 201.439 737.489 201.392 736.833 201.392ZM91.6295 243.705V247.251H96.442V257.08H91.6295V260.611H105.411V257.08H100.833V243.705H91.6295ZM96.1295 239.376C96.1295 239.71 96.1867 240.022 96.3013 240.314C96.4263 240.595 96.5982 240.835 96.817 241.033C97.0357 241.241 97.2961 241.403 97.5982 241.517C97.9107 241.632 98.2545 241.689 98.6295 241.689C99.4003 241.689 100.01 241.475 100.458 241.048C100.916 240.611 101.145 240.054 101.145 239.376C101.145 238.699 100.916 238.147 100.458 237.72C100.01 237.283 99.4003 237.064 98.6295 237.064C98.2545 237.064 97.9107 237.121 97.5982 237.236C97.2961 237.35 97.0357 237.507 96.817 237.705C96.5982 237.913 96.4263 238.163 96.3013 238.455C96.1867 238.736 96.1295 239.043 96.1295 239.376ZM109.692 260.611H114.051V248.595C114.197 248.366 114.359 248.158 114.536 247.97C114.713 247.783 114.911 247.621 115.129 247.486C115.4 247.298 115.708 247.158 116.051 247.064C116.405 246.97 116.791 246.923 117.208 246.923C117.708 246.923 118.155 246.975 118.551 247.08C118.947 247.173 119.286 247.345 119.567 247.595C119.848 247.845 120.062 248.189 120.208 248.626C120.364 249.054 120.442 249.6 120.442 250.267V260.611H124.786V250.205C124.786 248.975 124.64 247.934 124.348 247.08C124.067 246.215 123.671 245.507 123.161 244.955C122.64 244.413 122.025 244.017 121.317 243.767C120.609 243.517 119.827 243.392 118.973 243.392C118.307 243.392 117.676 243.486 117.083 243.673C116.489 243.861 115.942 244.132 115.442 244.486C115.15 244.694 114.874 244.929 114.614 245.189C114.353 245.449 114.114 245.736 113.895 246.048L113.629 243.705H109.692V260.611ZM136.879 239.564H132.536V243.705H128.676V246.908H132.536V254.595C132.536 255.71 132.682 256.668 132.973 257.47C133.265 258.262 133.682 258.913 134.223 259.423C134.754 259.944 135.395 260.33 136.145 260.58C136.905 260.819 137.749 260.939 138.676 260.939C139.155 260.939 139.64 260.913 140.129 260.861C140.629 260.819 141.109 260.757 141.567 260.673C142.025 260.59 142.458 260.486 142.864 260.361C143.27 260.225 143.624 260.069 143.926 259.892L143.504 256.908C143.307 256.96 143.067 257.012 142.786 257.064C142.515 257.116 142.223 257.163 141.911 257.205C141.588 257.257 141.249 257.298 140.895 257.33C140.551 257.361 140.213 257.376 139.879 257.376C139.421 257.376 139.004 257.324 138.629 257.22C138.265 257.116 137.952 256.939 137.692 256.689C137.432 256.449 137.228 256.126 137.083 255.72C136.947 255.304 136.879 254.788 136.879 254.173V246.908H143.192V243.705H136.879V239.564ZM156.333 260.923C157.968 260.923 159.385 260.606 160.583 259.97C161.78 259.335 162.655 258.626 163.208 257.845L161.036 255.501C160.536 256.147 159.885 256.632 159.083 256.955C158.28 257.278 157.452 257.439 156.598 257.439C155.994 257.439 155.437 257.345 154.926 257.158C154.416 256.97 153.963 256.705 153.567 256.361C153.182 256.028 152.874 255.658 152.645 255.251C152.416 254.835 152.228 254.288 152.083 253.611V253.564H163.551V251.72C163.551 250.481 163.379 249.35 163.036 248.33C162.692 247.298 162.192 246.418 161.536 245.689C160.869 244.96 160.057 244.397 159.098 244.001C158.15 243.595 157.067 243.392 155.848 243.392C154.671 243.392 153.583 243.606 152.583 244.033C151.583 244.46 150.718 245.059 149.989 245.83C149.26 246.6 148.692 247.522 148.286 248.595C147.879 249.658 147.676 250.835 147.676 252.126V252.751C147.676 253.887 147.879 254.955 148.286 255.955C148.702 256.944 149.291 257.804 150.051 258.533C150.812 259.272 151.723 259.856 152.786 260.283C153.848 260.71 155.03 260.923 156.333 260.923ZM155.817 246.908C156.369 246.908 156.853 246.996 157.27 247.173C157.697 247.34 158.057 247.569 158.348 247.861C158.64 248.163 158.869 248.517 159.036 248.923C159.202 249.33 159.286 249.762 159.286 250.22V250.564H152.161C152.265 250.012 152.421 249.512 152.629 249.064C152.838 248.616 153.098 248.231 153.411 247.908C153.713 247.585 154.067 247.34 154.473 247.173C154.879 246.996 155.327 246.908 155.817 246.908ZM179.489 243.392C178.353 243.392 177.307 243.668 176.348 244.22C175.39 244.762 174.567 245.512 173.879 246.47L173.848 246.095L173.676 243.705H169.629V260.611H173.973V250.455C174.171 249.975 174.421 249.559 174.723 249.205C175.025 248.85 175.39 248.559 175.817 248.33C176.171 248.132 176.572 247.986 177.02 247.892C177.478 247.788 177.989 247.736 178.551 247.736C179.093 247.736 179.661 247.772 180.254 247.845C180.859 247.908 181.447 248.007 182.02 248.142L182.661 243.814C182.317 243.71 181.864 243.616 181.301 243.533C180.749 243.439 180.145 243.392 179.489 243.392ZM186.567 260.611H190.926V248.595C191.072 248.366 191.234 248.158 191.411 247.97C191.588 247.783 191.786 247.621 192.004 247.486C192.275 247.298 192.583 247.158 192.926 247.064C193.28 246.97 193.666 246.923 194.083 246.923C194.583 246.923 195.03 246.975 195.426 247.08C195.822 247.173 196.161 247.345 196.442 247.595C196.723 247.845 196.937 248.189 197.083 248.626C197.239 249.054 197.317 249.6 197.317 250.267V260.611H201.661V250.205C201.661 248.975 201.515 247.934 201.223 247.08C200.942 246.215 200.546 245.507 200.036 244.955C199.515 244.413 198.9 244.017 198.192 243.767C197.484 243.517 196.702 243.392 195.848 243.392C195.182 243.392 194.551 243.486 193.958 243.673C193.364 243.861 192.817 244.132 192.317 244.486C192.025 244.694 191.749 244.929 191.489 245.189C191.228 245.449 190.989 245.736 190.77 246.048L190.504 243.705H186.567V260.611ZM213.989 260.923C215.624 260.923 217.041 260.606 218.239 259.97C219.437 259.335 220.312 258.626 220.864 257.845L218.692 255.501C218.192 256.147 217.541 256.632 216.739 256.955C215.937 257.278 215.109 257.439 214.254 257.439C213.65 257.439 213.093 257.345 212.583 257.158C212.072 256.97 211.619 256.705 211.223 256.361C210.838 256.028 210.53 255.658 210.301 255.251C210.072 254.835 209.885 254.288 209.739 253.611V253.564H221.208V251.72C221.208 250.481 221.036 249.35 220.692 248.33C220.348 247.298 219.848 246.418 219.192 245.689C218.525 244.96 217.713 244.397 216.754 244.001C215.807 243.595 214.723 243.392 213.504 243.392C212.327 243.392 211.239 243.606 210.239 244.033C209.239 244.46 208.374 245.059 207.645 245.83C206.916 246.6 206.348 247.522 205.942 248.595C205.536 249.658 205.333 250.835 205.333 252.126V252.751C205.333 253.887 205.536 254.955 205.942 255.955C206.359 256.944 206.947 257.804 207.708 258.533C208.468 259.272 209.379 259.856 210.442 260.283C211.504 260.71 212.687 260.923 213.989 260.923ZM213.473 246.908C214.025 246.908 214.51 246.996 214.926 247.173C215.353 247.34 215.713 247.569 216.004 247.861C216.296 248.163 216.525 248.517 216.692 248.923C216.859 249.33 216.942 249.762 216.942 250.22V250.564H209.817C209.921 250.012 210.077 249.512 210.286 249.064C210.494 248.616 210.754 248.231 211.067 247.908C211.369 247.585 211.723 247.34 212.129 247.173C212.536 246.996 212.984 246.908 213.473 246.908ZM232.973 239.564H228.629V243.705H224.77V246.908H228.629V254.595C228.629 255.71 228.775 256.668 229.067 257.47C229.359 258.262 229.775 258.913 230.317 259.423C230.848 259.944 231.489 260.33 232.239 260.58C232.999 260.819 233.843 260.939 234.77 260.939C235.249 260.939 235.734 260.913 236.223 260.861C236.723 260.819 237.202 260.757 237.661 260.673C238.119 260.59 238.551 260.486 238.958 260.361C239.364 260.225 239.718 260.069 240.02 259.892L239.598 256.908C239.4 256.96 239.161 257.012 238.879 257.064C238.609 257.116 238.317 257.163 238.004 257.205C237.682 257.257 237.343 257.298 236.989 257.33C236.645 257.361 236.307 257.376 235.973 257.376C235.515 257.376 235.098 257.324 234.723 257.22C234.359 257.116 234.046 256.939 233.786 256.689C233.525 256.449 233.322 256.126 233.176 255.72C233.041 255.304 232.973 254.788 232.973 254.173V246.908H239.286V243.705H232.973V239.564ZM274.004 260.611H278.411V260.345C278.192 259.918 278.025 259.408 277.911 258.814C277.796 258.22 277.739 257.47 277.739 256.564V249.314C277.739 248.335 277.557 247.475 277.192 246.736C276.827 245.986 276.322 245.366 275.676 244.876C275.03 244.387 274.265 244.017 273.379 243.767C272.504 243.517 271.557 243.392 270.536 243.392C269.4 243.392 268.39 243.538 267.504 243.83C266.629 244.111 265.89 244.496 265.286 244.986C264.671 245.475 264.202 246.043 263.879 246.689C263.567 247.335 263.411 248.017 263.411 248.736H267.754C267.754 248.434 267.796 248.158 267.879 247.908C267.973 247.658 268.114 247.444 268.301 247.267C268.51 247.069 268.78 246.918 269.114 246.814C269.447 246.699 269.843 246.642 270.301 246.642C270.822 246.642 271.275 246.71 271.661 246.845C272.057 246.97 272.385 247.153 272.645 247.392C272.895 247.621 273.083 247.897 273.208 248.22C273.333 248.533 273.395 248.887 273.395 249.283V250.283H270.973C269.723 250.283 268.614 250.397 267.645 250.626C266.687 250.845 265.879 251.168 265.223 251.595C264.494 252.064 263.947 252.663 263.583 253.392C263.218 254.111 263.036 254.939 263.036 255.876C263.036 256.606 263.182 257.283 263.473 257.908C263.765 258.522 264.171 259.054 264.692 259.501C265.213 259.949 265.833 260.298 266.551 260.548C267.28 260.798 268.077 260.923 268.942 260.923C269.473 260.923 269.968 260.871 270.426 260.767C270.885 260.673 271.307 260.538 271.692 260.361C272.067 260.194 272.411 259.996 272.723 259.767C273.036 259.538 273.312 259.293 273.551 259.033C273.603 259.335 273.666 259.621 273.739 259.892C273.812 260.163 273.9 260.403 274.004 260.611ZM269.864 257.564C269.458 257.564 269.098 257.517 268.786 257.423C268.484 257.319 268.228 257.184 268.02 257.017C267.812 256.84 267.65 256.626 267.536 256.376C267.432 256.116 267.379 255.835 267.379 255.533C267.379 255.147 267.452 254.793 267.598 254.47C267.744 254.137 267.968 253.85 268.27 253.611C268.572 253.382 268.963 253.205 269.442 253.08C269.921 252.944 270.499 252.876 271.176 252.876H273.395V255.783C273.27 256.001 273.098 256.22 272.879 256.439C272.661 256.647 272.4 256.835 272.098 257.001C271.796 257.168 271.458 257.304 271.083 257.408C270.708 257.512 270.301 257.564 269.864 257.564ZM290.145 257.455C289.447 257.455 288.869 257.314 288.411 257.033C287.963 256.751 287.609 256.376 287.348 255.908C287.077 255.449 286.89 254.918 286.786 254.314C286.682 253.699 286.629 253.064 286.629 252.408V251.939C286.629 251.293 286.682 250.668 286.786 250.064C286.9 249.46 287.093 248.923 287.364 248.455C287.624 247.986 287.978 247.611 288.426 247.33C288.874 247.048 289.442 246.908 290.129 246.908C290.598 246.908 291.03 246.991 291.426 247.158C291.822 247.314 292.161 247.528 292.442 247.798C292.723 248.069 292.937 248.392 293.083 248.767C293.228 249.142 293.291 249.538 293.27 249.955H297.364C297.385 248.955 297.218 248.054 296.864 247.251C296.51 246.439 296.015 245.746 295.379 245.173C294.734 244.611 293.968 244.173 293.083 243.861C292.197 243.548 291.234 243.392 290.192 243.392C288.89 243.392 287.744 243.616 286.754 244.064C285.775 244.512 284.952 245.121 284.286 245.892C283.619 246.663 283.119 247.569 282.786 248.611C282.452 249.642 282.286 250.751 282.286 251.939V252.408C282.286 253.595 282.452 254.71 282.786 255.751C283.129 256.783 283.635 257.684 284.301 258.455C284.958 259.225 285.78 259.835 286.77 260.283C287.76 260.72 288.911 260.939 290.223 260.939C291.192 260.939 292.109 260.788 292.973 260.486C293.848 260.173 294.614 259.746 295.27 259.205C295.926 258.663 296.442 258.017 296.817 257.267C297.202 256.517 297.385 255.705 297.364 254.83H293.27C293.291 255.225 293.218 255.585 293.051 255.908C292.895 256.231 292.671 256.507 292.379 256.736C292.088 256.965 291.749 257.142 291.364 257.267C290.978 257.392 290.572 257.455 290.145 257.455ZM309.364 257.455C308.666 257.455 308.088 257.314 307.629 257.033C307.182 256.751 306.827 256.376 306.567 255.908C306.296 255.449 306.109 254.918 306.004 254.314C305.9 253.699 305.848 253.064 305.848 252.408V251.939C305.848 251.293 305.9 250.668 306.004 250.064C306.119 249.46 306.312 248.923 306.583 248.455C306.843 247.986 307.197 247.611 307.645 247.33C308.093 247.048 308.661 246.908 309.348 246.908C309.817 246.908 310.249 246.991 310.645 247.158C311.041 247.314 311.379 247.528 311.661 247.798C311.942 248.069 312.155 248.392 312.301 248.767C312.447 249.142 312.51 249.538 312.489 249.955H316.583C316.603 248.955 316.437 248.054 316.083 247.251C315.728 246.439 315.234 245.746 314.598 245.173C313.952 244.611 313.187 244.173 312.301 243.861C311.416 243.548 310.452 243.392 309.411 243.392C308.109 243.392 306.963 243.616 305.973 244.064C304.994 244.512 304.171 245.121 303.504 245.892C302.838 246.663 302.338 247.569 302.004 248.611C301.671 249.642 301.504 250.751 301.504 251.939V252.408C301.504 253.595 301.671 254.71 302.004 255.751C302.348 256.783 302.853 257.684 303.52 258.455C304.176 259.225 304.999 259.835 305.989 260.283C306.978 260.72 308.129 260.939 309.442 260.939C310.411 260.939 311.327 260.788 312.192 260.486C313.067 260.173 313.833 259.746 314.489 259.205C315.145 258.663 315.661 258.017 316.036 257.267C316.421 256.517 316.603 255.705 316.583 254.83H312.489C312.51 255.225 312.437 255.585 312.27 255.908C312.114 256.231 311.89 256.507 311.598 256.736C311.307 256.965 310.968 257.142 310.583 257.267C310.197 257.392 309.791 257.455 309.364 257.455ZM329.301 260.923C330.937 260.923 332.353 260.606 333.551 259.97C334.749 259.335 335.624 258.626 336.176 257.845L334.004 255.501C333.504 256.147 332.853 256.632 332.051 256.955C331.249 257.278 330.421 257.439 329.567 257.439C328.963 257.439 328.405 257.345 327.895 257.158C327.385 256.97 326.932 256.705 326.536 256.361C326.15 256.028 325.843 255.658 325.614 255.251C325.385 254.835 325.197 254.288 325.051 253.611V253.564H336.52V251.72C336.52 250.481 336.348 249.35 336.004 248.33C335.661 247.298 335.161 246.418 334.504 245.689C333.838 244.96 333.025 244.397 332.067 244.001C331.119 243.595 330.036 243.392 328.817 243.392C327.64 243.392 326.551 243.606 325.551 244.033C324.551 244.46 323.687 245.059 322.958 245.83C322.228 246.6 321.661 247.522 321.254 248.595C320.848 249.658 320.645 250.835 320.645 252.126V252.751C320.645 253.887 320.848 254.955 321.254 255.955C321.671 256.944 322.26 257.804 323.02 258.533C323.78 259.272 324.692 259.856 325.754 260.283C326.817 260.71 327.999 260.923 329.301 260.923ZM328.786 246.908C329.338 246.908 329.822 246.996 330.239 247.173C330.666 247.34 331.025 247.569 331.317 247.861C331.609 248.163 331.838 248.517 332.004 248.923C332.171 249.33 332.254 249.762 332.254 250.22V250.564H325.129C325.234 250.012 325.39 249.512 325.598 249.064C325.807 248.616 326.067 248.231 326.379 247.908C326.682 247.585 327.036 247.34 327.442 247.173C327.848 246.996 328.296 246.908 328.786 246.908ZM351.223 255.97C351.223 256.231 351.155 256.47 351.02 256.689C350.895 256.908 350.702 257.1 350.442 257.267C350.171 257.434 349.822 257.569 349.395 257.673C348.978 257.767 348.489 257.814 347.926 257.814C347.458 257.814 346.999 257.767 346.551 257.673C346.114 257.58 345.723 257.429 345.379 257.22C345.036 257.022 344.754 256.762 344.536 256.439C344.317 256.106 344.192 255.71 344.161 255.251H340.02C340.02 255.939 340.187 256.626 340.52 257.314C340.864 257.991 341.364 258.595 342.02 259.126C342.676 259.668 343.489 260.106 344.458 260.439C345.437 260.772 346.562 260.939 347.833 260.939C348.989 260.939 350.036 260.814 350.973 260.564C351.911 260.304 352.713 259.944 353.379 259.486C354.036 259.028 354.541 258.486 354.895 257.861C355.26 257.225 355.442 256.533 355.442 255.783C355.442 254.97 355.26 254.272 354.895 253.689C354.541 253.095 354.046 252.59 353.411 252.173C352.775 251.767 352.02 251.434 351.145 251.173C350.27 250.913 349.322 250.699 348.301 250.533C347.593 250.429 347.01 250.309 346.551 250.173C346.093 250.028 345.734 249.866 345.473 249.689C345.202 249.522 345.015 249.335 344.911 249.126C344.807 248.908 344.754 248.673 344.754 248.423C344.754 248.173 344.812 247.939 344.926 247.72C345.051 247.491 345.228 247.293 345.458 247.126C345.708 246.939 346.03 246.793 346.426 246.689C346.822 246.585 347.286 246.533 347.817 246.533C348.442 246.533 348.973 246.611 349.411 246.767C349.859 246.923 350.213 247.132 350.473 247.392C350.661 247.59 350.801 247.814 350.895 248.064C350.989 248.304 351.036 248.564 351.036 248.845H355.379C355.379 248.064 355.208 247.34 354.864 246.673C354.52 246.007 354.025 245.429 353.379 244.939C352.723 244.46 351.926 244.085 350.989 243.814C350.051 243.533 348.994 243.392 347.817 243.392C346.692 243.392 345.682 243.533 344.786 243.814C343.89 244.095 343.129 244.475 342.504 244.955C341.879 245.434 341.4 245.991 341.067 246.626C340.734 247.262 340.567 247.929 340.567 248.626C340.567 249.345 340.728 249.981 341.051 250.533C341.385 251.085 341.843 251.569 342.426 251.986C343.01 252.413 343.708 252.778 344.52 253.08C345.343 253.371 346.249 253.616 347.239 253.814C348.02 253.96 348.666 254.106 349.176 254.251C349.687 254.397 350.098 254.554 350.411 254.72C350.713 254.897 350.921 255.085 351.036 255.283C351.161 255.481 351.223 255.71 351.223 255.97ZM370.442 255.97C370.442 256.231 370.374 256.47 370.239 256.689C370.114 256.908 369.921 257.1 369.661 257.267C369.39 257.434 369.041 257.569 368.614 257.673C368.197 257.767 367.708 257.814 367.145 257.814C366.676 257.814 366.218 257.767 365.77 257.673C365.333 257.58 364.942 257.429 364.598 257.22C364.254 257.022 363.973 256.762 363.754 256.439C363.536 256.106 363.411 255.71 363.379 255.251H359.239C359.239 255.939 359.405 256.626 359.739 257.314C360.083 257.991 360.583 258.595 361.239 259.126C361.895 259.668 362.708 260.106 363.676 260.439C364.655 260.772 365.78 260.939 367.051 260.939C368.208 260.939 369.254 260.814 370.192 260.564C371.129 260.304 371.932 259.944 372.598 259.486C373.254 259.028 373.76 258.486 374.114 257.861C374.478 257.225 374.661 256.533 374.661 255.783C374.661 254.97 374.478 254.272 374.114 253.689C373.76 253.095 373.265 252.59 372.629 252.173C371.994 251.767 371.239 251.434 370.364 251.173C369.489 250.913 368.541 250.699 367.52 250.533C366.812 250.429 366.228 250.309 365.77 250.173C365.312 250.028 364.952 249.866 364.692 249.689C364.421 249.522 364.234 249.335 364.129 249.126C364.025 248.908 363.973 248.673 363.973 248.423C363.973 248.173 364.03 247.939 364.145 247.72C364.27 247.491 364.447 247.293 364.676 247.126C364.926 246.939 365.249 246.793 365.645 246.689C366.041 246.585 366.504 246.533 367.036 246.533C367.661 246.533 368.192 246.611 368.629 246.767C369.077 246.923 369.432 247.132 369.692 247.392C369.879 247.59 370.02 247.814 370.114 248.064C370.208 248.304 370.254 248.564 370.254 248.845H374.598C374.598 248.064 374.426 247.34 374.083 246.673C373.739 246.007 373.244 245.429 372.598 244.939C371.942 244.46 371.145 244.085 370.208 243.814C369.27 243.533 368.213 243.392 367.036 243.392C365.911 243.392 364.9 243.533 364.004 243.814C363.109 244.095 362.348 244.475 361.723 244.955C361.098 245.434 360.619 245.991 360.286 246.626C359.952 247.262 359.786 247.929 359.786 248.626C359.786 249.345 359.947 249.981 360.27 250.533C360.603 251.085 361.062 251.569 361.645 251.986C362.228 252.413 362.926 252.778 363.739 253.08C364.562 253.371 365.468 253.616 366.458 253.814C367.239 253.96 367.885 254.106 368.395 254.251C368.905 254.397 369.317 254.554 369.629 254.72C369.932 254.897 370.14 255.085 370.254 255.283C370.379 255.481 370.442 255.71 370.442 255.97ZM383.145 258.095C383.145 258.897 383.416 259.569 383.958 260.111C384.499 260.653 385.234 260.923 386.161 260.923C387.077 260.923 387.807 260.658 388.348 260.126C388.9 259.585 389.176 258.908 389.176 258.095C389.176 257.283 388.905 256.6 388.364 256.048C387.833 255.496 387.098 255.22 386.161 255.22C385.213 255.22 384.473 255.501 383.942 256.064C383.411 256.616 383.145 257.293 383.145 258.095ZM418.442 260.611H422.254L424.051 251.58L424.395 249.861L424.754 251.58L426.614 260.611H430.426L433.458 243.705H429.473L428.223 253.673L428.004 255.314L427.708 253.705L425.879 243.705H422.973L421.145 253.751L420.848 255.361L420.645 253.751L419.379 243.705H415.411L418.442 260.611ZM435.817 252.001V252.33C435.817 253.569 435.994 254.715 436.348 255.767C436.702 256.809 437.223 257.715 437.911 258.486C438.588 259.257 439.421 259.861 440.411 260.298C441.411 260.725 442.546 260.939 443.817 260.939C445.077 260.939 446.202 260.725 447.192 260.298C448.182 259.861 449.015 259.257 449.692 258.486C450.369 257.715 450.885 256.809 451.239 255.767C451.593 254.715 451.77 253.569 451.77 252.33V252.001C451.77 250.772 451.593 249.637 451.239 248.595C450.885 247.543 450.369 246.632 449.692 245.861C449.004 245.09 448.166 244.486 447.176 244.048C446.187 243.611 445.057 243.392 443.786 243.392C442.515 243.392 441.385 243.611 440.395 244.048C439.416 244.486 438.588 245.09 437.911 245.861C437.223 246.632 436.702 247.543 436.348 248.595C435.994 249.637 435.817 250.772 435.817 252.001ZM440.161 252.33V252.001C440.161 251.314 440.228 250.663 440.364 250.048C440.499 249.434 440.713 248.892 441.004 248.423C441.296 247.955 441.671 247.585 442.129 247.314C442.588 247.043 443.14 246.908 443.786 246.908C444.442 246.908 444.999 247.043 445.458 247.314C445.916 247.585 446.291 247.955 446.583 248.423C446.864 248.892 447.072 249.434 447.208 250.048C447.343 250.663 447.411 251.314 447.411 252.001V252.33C447.411 253.038 447.343 253.705 447.208 254.33C447.072 254.944 446.864 255.481 446.583 255.939C446.291 256.408 445.916 256.778 445.458 257.048C444.999 257.319 444.452 257.455 443.817 257.455C443.161 257.455 442.598 257.319 442.129 257.048C441.671 256.778 441.296 256.408 441.004 255.939C440.713 255.481 440.499 254.944 440.364 254.33C440.228 253.705 440.161 253.038 440.161 252.33ZM466.661 260.611H470.598V243.705H466.239V255.564C466.103 255.835 465.942 256.08 465.754 256.298C465.567 256.517 465.353 256.705 465.114 256.861C464.833 257.038 464.504 257.173 464.129 257.267C463.765 257.361 463.353 257.408 462.895 257.408C462.385 257.408 461.952 257.345 461.598 257.22C461.244 257.095 460.958 256.887 460.739 256.595C460.52 256.314 460.359 255.939 460.254 255.47C460.161 255.001 460.114 254.423 460.114 253.736V243.705H455.77V253.705C455.77 254.986 455.911 256.085 456.192 257.001C456.484 257.908 456.89 258.653 457.411 259.236C457.932 259.83 458.557 260.262 459.286 260.533C460.015 260.804 460.817 260.939 461.692 260.939C462.65 260.939 463.53 260.699 464.333 260.22C465.145 259.741 465.838 259.08 466.411 258.236L466.661 260.611ZM475.754 236.611V240.158H480.817V257.08H475.754V260.611H490.051V257.08H485.208V236.611H475.754ZM493.614 252.033V252.361C493.614 253.59 493.765 254.731 494.067 255.783C494.369 256.824 494.807 257.725 495.379 258.486C495.942 259.246 496.629 259.845 497.442 260.283C498.265 260.71 499.192 260.923 500.223 260.923C501.171 260.923 502.004 260.741 502.723 260.376C503.442 260.012 504.067 259.501 504.598 258.845L504.817 260.611H508.739V236.611H504.379V245.22C503.859 244.637 503.26 244.189 502.583 243.876C501.916 243.554 501.14 243.392 500.254 243.392C499.202 243.392 498.265 243.6 497.442 244.017C496.629 244.434 495.937 245.022 495.364 245.783C494.791 246.543 494.353 247.455 494.051 248.517C493.76 249.58 493.614 250.751 493.614 252.033ZM497.958 252.361V252.033C497.958 251.324 498.02 250.663 498.145 250.048C498.27 249.423 498.468 248.876 498.739 248.408C499.01 247.949 499.359 247.59 499.786 247.33C500.223 247.059 500.749 246.923 501.364 246.923C502.103 246.923 502.718 247.085 503.208 247.408C503.697 247.72 504.088 248.163 504.379 248.736V255.58C504.088 256.142 503.692 256.585 503.192 256.908C502.702 257.231 502.083 257.392 501.333 257.392C500.718 257.392 500.197 257.262 499.77 257.001C499.343 256.741 498.994 256.382 498.723 255.923C498.452 255.475 498.254 254.949 498.129 254.345C498.015 253.731 497.958 253.069 497.958 252.361ZM535.176 267.439C536.051 267.439 536.807 267.293 537.442 267.001C538.088 266.71 538.635 266.35 539.083 265.923C539.53 265.496 539.9 265.033 540.192 264.533C540.494 264.033 540.739 263.569 540.926 263.142L549.504 243.705H544.708L540.848 253.642L540.208 255.33L539.739 253.611L535.864 243.705H531.114L538.27 259.892L537.27 261.751C537.145 261.981 537.036 262.158 536.942 262.283C536.859 262.408 536.723 262.595 536.536 262.845C536.348 263.095 536.119 263.324 535.848 263.533C535.588 263.751 535.286 263.861 534.942 263.861C534.775 263.861 534.551 263.85 534.27 263.83C533.999 263.819 533.775 263.814 533.598 263.814L533.067 267.126C533.442 267.231 533.78 267.309 534.083 267.361C534.395 267.413 534.76 267.439 535.176 267.439ZM551.129 252.001V252.33C551.129 253.569 551.307 254.715 551.661 255.767C552.015 256.809 552.536 257.715 553.223 258.486C553.9 259.257 554.734 259.861 555.723 260.298C556.723 260.725 557.859 260.939 559.129 260.939C560.39 260.939 561.515 260.725 562.504 260.298C563.494 259.861 564.327 259.257 565.004 258.486C565.682 257.715 566.197 256.809 566.551 255.767C566.905 254.715 567.083 253.569 567.083 252.33V252.001C567.083 250.772 566.905 249.637 566.551 248.595C566.197 247.543 565.682 246.632 565.004 245.861C564.317 245.09 563.478 244.486 562.489 244.048C561.499 243.611 560.369 243.392 559.098 243.392C557.827 243.392 556.697 243.611 555.708 244.048C554.728 244.486 553.9 245.09 553.223 245.861C552.536 246.632 552.015 247.543 551.661 248.595C551.307 249.637 551.129 250.772 551.129 252.001ZM555.473 252.33V252.001C555.473 251.314 555.541 250.663 555.676 250.048C555.812 249.434 556.025 248.892 556.317 248.423C556.609 247.955 556.984 247.585 557.442 247.314C557.9 247.043 558.452 246.908 559.098 246.908C559.754 246.908 560.312 247.043 560.77 247.314C561.228 247.585 561.603 247.955 561.895 248.423C562.176 248.892 562.385 249.434 562.52 250.048C562.655 250.663 562.723 251.314 562.723 252.001V252.33C562.723 253.038 562.655 253.705 562.52 254.33C562.385 254.944 562.176 255.481 561.895 255.939C561.603 256.408 561.228 256.778 560.77 257.048C560.312 257.319 559.765 257.455 559.129 257.455C558.473 257.455 557.911 257.319 557.442 257.048C556.984 256.778 556.609 256.408 556.317 255.939C556.025 255.481 555.812 254.944 555.676 254.33C555.541 253.705 555.473 253.038 555.473 252.33ZM581.973 260.611H585.911V243.705H581.551V255.564C581.416 255.835 581.254 256.08 581.067 256.298C580.879 256.517 580.666 256.705 580.426 256.861C580.145 257.038 579.817 257.173 579.442 257.267C579.077 257.361 578.666 257.408 578.208 257.408C577.697 257.408 577.265 257.345 576.911 257.22C576.557 257.095 576.27 256.887 576.051 256.595C575.833 256.314 575.671 255.939 575.567 255.47C575.473 255.001 575.426 254.423 575.426 253.736V243.705H571.083V253.705C571.083 254.986 571.223 256.085 571.504 257.001C571.796 257.908 572.202 258.653 572.723 259.236C573.244 259.83 573.869 260.262 574.598 260.533C575.327 260.804 576.129 260.939 577.004 260.939C577.963 260.939 578.843 260.699 579.645 260.22C580.458 259.741 581.15 259.08 581.723 258.236L581.973 260.611ZM610.286 236.611V240.158H615.348V257.08H610.286V260.611H624.583V257.08H619.739V236.611H610.286ZM629.754 243.705V247.251H634.567V257.08H629.754V260.611H643.536V257.08H638.958V243.705H629.754ZM634.254 239.376C634.254 239.71 634.312 240.022 634.426 240.314C634.551 240.595 634.723 240.835 634.942 241.033C635.161 241.241 635.421 241.403 635.723 241.517C636.036 241.632 636.379 241.689 636.754 241.689C637.525 241.689 638.135 241.475 638.583 241.048C639.041 240.611 639.27 240.054 639.27 239.376C639.27 238.699 639.041 238.147 638.583 237.72C638.135 237.283 637.525 237.064 636.754 237.064C636.379 237.064 636.036 237.121 635.723 237.236C635.421 237.35 635.161 237.507 634.942 237.705C634.723 237.913 634.551 238.163 634.426 238.455C634.312 238.736 634.254 239.043 634.254 239.376ZM654.176 253.626L658.973 260.611H664.301L657.036 250.751L663.411 243.705H658.192L653.52 248.83L652.208 250.33V236.611H647.864V260.611H652.208V255.455L654.176 253.626ZM675.239 260.923C676.874 260.923 678.291 260.606 679.489 259.97C680.687 259.335 681.562 258.626 682.114 257.845L679.942 255.501C679.442 256.147 678.791 256.632 677.989 256.955C677.187 257.278 676.359 257.439 675.504 257.439C674.9 257.439 674.343 257.345 673.833 257.158C673.322 256.97 672.869 256.705 672.473 256.361C672.088 256.028 671.78 255.658 671.551 255.251C671.322 254.835 671.135 254.288 670.989 253.611V253.564H682.458V251.72C682.458 250.481 682.286 249.35 681.942 248.33C681.598 247.298 681.098 246.418 680.442 245.689C679.775 244.96 678.963 244.397 678.004 244.001C677.057 243.595 675.973 243.392 674.754 243.392C673.577 243.392 672.489 243.606 671.489 244.033C670.489 244.46 669.624 245.059 668.895 245.83C668.166 246.6 667.598 247.522 667.192 248.595C666.786 249.658 666.583 250.835 666.583 252.126V252.751C666.583 253.887 666.786 254.955 667.192 255.955C667.609 256.944 668.197 257.804 668.958 258.533C669.718 259.272 670.629 259.856 671.692 260.283C672.754 260.71 673.937 260.923 675.239 260.923ZM674.723 246.908C675.275 246.908 675.76 246.996 676.176 247.173C676.603 247.34 676.963 247.569 677.254 247.861C677.546 248.163 677.775 248.517 677.942 248.923C678.109 249.33 678.192 249.762 678.192 250.22V250.564H671.067C671.171 250.012 671.327 249.512 671.536 249.064C671.744 248.616 672.004 248.231 672.317 247.908C672.619 247.585 672.973 247.34 673.379 247.173C673.786 246.996 674.234 246.908 674.723 246.908ZM713.442 239.564H709.098V243.705H705.239V246.908H709.098V254.595C709.098 255.71 709.244 256.668 709.536 257.47C709.827 258.262 710.244 258.913 710.786 259.423C711.317 259.944 711.958 260.33 712.708 260.58C713.468 260.819 714.312 260.939 715.239 260.939C715.718 260.939 716.202 260.913 716.692 260.861C717.192 260.819 717.671 260.757 718.129 260.673C718.588 260.59 719.02 260.486 719.426 260.361C719.833 260.225 720.187 260.069 720.489 259.892L720.067 256.908C719.869 256.96 719.629 257.012 719.348 257.064C719.077 257.116 718.786 257.163 718.473 257.205C718.15 257.257 717.812 257.298 717.458 257.33C717.114 257.361 716.775 257.376 716.442 257.376C715.984 257.376 715.567 257.324 715.192 257.22C714.827 257.116 714.515 256.939 714.254 256.689C713.994 256.449 713.791 256.126 713.645 255.72C713.51 255.304 713.442 254.788 713.442 254.173V246.908H719.754V243.705H713.442V239.564ZM724.098 252.001V252.33C724.098 253.569 724.275 254.715 724.629 255.767C724.984 256.809 725.504 257.715 726.192 258.486C726.869 259.257 727.702 259.861 728.692 260.298C729.692 260.725 730.827 260.939 732.098 260.939C733.359 260.939 734.484 260.725 735.473 260.298C736.463 259.861 737.296 259.257 737.973 258.486C738.65 257.715 739.166 256.809 739.52 255.767C739.874 254.715 740.051 253.569 740.051 252.33V252.001C740.051 250.772 739.874 249.637 739.52 248.595C739.166 247.543 738.65 246.632 737.973 245.861C737.286 245.09 736.447 244.486 735.458 244.048C734.468 243.611 733.338 243.392 732.067 243.392C730.796 243.392 729.666 243.611 728.676 244.048C727.697 244.486 726.869 245.09 726.192 245.861C725.504 246.632 724.984 247.543 724.629 248.595C724.275 249.637 724.098 250.772 724.098 252.001ZM728.442 252.33V252.001C728.442 251.314 728.51 250.663 728.645 250.048C728.78 249.434 728.994 248.892 729.286 248.423C729.577 247.955 729.952 247.585 730.411 247.314C730.869 247.043 731.421 246.908 732.067 246.908C732.723 246.908 733.28 247.043 733.739 247.314C734.197 247.585 734.572 247.955 734.864 248.423C735.145 248.892 735.353 249.434 735.489 250.048C735.624 250.663 735.692 251.314 735.692 252.001V252.33C735.692 253.038 735.624 253.705 735.489 254.33C735.353 254.944 735.145 255.481 734.864 255.939C734.572 256.408 734.197 256.778 733.739 257.048C733.28 257.319 732.734 257.455 732.098 257.455C731.442 257.455 730.879 257.319 730.411 257.048C729.952 256.778 729.577 256.408 729.286 255.939C728.994 255.481 728.78 254.944 728.645 254.33C728.51 253.705 728.442 253.038 728.442 252.33ZM340.379 309.111H344.723V301.142C344.921 301.361 345.129 301.559 345.348 301.736C345.567 301.913 345.796 302.074 346.036 302.22C346.442 302.449 346.879 302.621 347.348 302.736C347.827 302.861 348.348 302.923 348.911 302.923C349.973 302.923 350.916 302.705 351.739 302.267C352.562 301.83 353.254 301.225 353.817 300.455C354.369 299.694 354.786 298.788 355.067 297.736C355.359 296.684 355.504 295.543 355.504 294.314V293.986C355.504 292.705 355.359 291.538 355.067 290.486C354.786 289.423 354.364 288.512 353.801 287.751C353.239 287.001 352.546 286.423 351.723 286.017C350.9 285.6 349.952 285.392 348.879 285.392C348.359 285.392 347.869 285.449 347.411 285.564C346.963 285.668 346.551 285.819 346.176 286.017C345.864 286.184 345.572 286.382 345.301 286.611C345.03 286.83 344.78 287.08 344.551 287.361L344.395 285.705H340.379V309.111ZM351.161 293.986V294.314C351.161 295.012 351.098 295.673 350.973 296.298C350.848 296.913 350.65 297.455 350.379 297.923C350.109 298.392 349.754 298.762 349.317 299.033C348.89 299.304 348.369 299.439 347.754 299.439C347.369 299.439 347.02 299.403 346.708 299.33C346.395 299.246 346.119 299.132 345.879 298.986C345.629 298.83 345.405 298.642 345.208 298.423C345.02 298.205 344.859 297.96 344.723 297.689V290.626C344.869 290.335 345.041 290.08 345.239 289.861C345.447 289.642 345.687 289.46 345.958 289.314C346.197 289.189 346.463 289.095 346.754 289.033C347.046 288.96 347.369 288.923 347.723 288.923C348.338 288.923 348.859 289.054 349.286 289.314C349.723 289.574 350.083 289.929 350.364 290.376C350.635 290.835 350.833 291.376 350.958 292.001C351.093 292.616 351.161 293.278 351.161 293.986ZM371.676 285.392C370.541 285.392 369.494 285.668 368.536 286.22C367.577 286.762 366.754 287.512 366.067 288.47L366.036 288.095L365.864 285.705H361.817V302.611H366.161V292.455C366.359 291.975 366.609 291.559 366.911 291.205C367.213 290.85 367.577 290.559 368.004 290.33C368.359 290.132 368.76 289.986 369.208 289.892C369.666 289.788 370.176 289.736 370.739 289.736C371.28 289.736 371.848 289.772 372.442 289.845C373.046 289.908 373.635 290.007 374.208 290.142L374.848 285.814C374.504 285.71 374.051 285.616 373.489 285.533C372.937 285.439 372.333 285.392 371.676 285.392ZM378.161 294.001V294.33C378.161 295.569 378.338 296.715 378.692 297.767C379.046 298.809 379.567 299.715 380.254 300.486C380.932 301.257 381.765 301.861 382.754 302.298C383.754 302.725 384.89 302.939 386.161 302.939C387.421 302.939 388.546 302.725 389.536 302.298C390.525 301.861 391.359 301.257 392.036 300.486C392.713 299.715 393.228 298.809 393.583 297.767C393.937 296.715 394.114 295.569 394.114 294.33V294.001C394.114 292.772 393.937 291.637 393.583 290.595C393.228 289.543 392.713 288.632 392.036 287.861C391.348 287.09 390.51 286.486 389.52 286.048C388.53 285.611 387.4 285.392 386.129 285.392C384.859 285.392 383.728 285.611 382.739 286.048C381.76 286.486 380.932 287.09 380.254 287.861C379.567 288.632 379.046 289.543 378.692 290.595C378.338 291.637 378.161 292.772 378.161 294.001ZM382.504 294.33V294.001C382.504 293.314 382.572 292.663 382.708 292.048C382.843 291.434 383.057 290.892 383.348 290.423C383.64 289.955 384.015 289.585 384.473 289.314C384.932 289.043 385.484 288.908 386.129 288.908C386.786 288.908 387.343 289.043 387.801 289.314C388.26 289.585 388.635 289.955 388.926 290.423C389.208 290.892 389.416 291.434 389.551 292.048C389.687 292.663 389.754 293.314 389.754 294.001V294.33C389.754 295.038 389.687 295.705 389.551 296.33C389.416 296.944 389.208 297.481 388.926 297.939C388.635 298.408 388.26 298.778 387.801 299.048C387.343 299.319 386.796 299.455 386.161 299.455C385.504 299.455 384.942 299.319 384.473 299.048C384.015 298.778 383.64 298.408 383.348 297.939C383.057 297.481 382.843 296.944 382.708 296.33C382.572 295.705 382.504 295.038 382.504 294.33ZM405.458 299.455C404.76 299.455 404.182 299.314 403.723 299.033C403.275 298.751 402.921 298.376 402.661 297.908C402.39 297.449 402.202 296.918 402.098 296.314C401.994 295.699 401.942 295.064 401.942 294.408V293.939C401.942 293.293 401.994 292.668 402.098 292.064C402.213 291.46 402.405 290.923 402.676 290.455C402.937 289.986 403.291 289.611 403.739 289.33C404.187 289.048 404.754 288.908 405.442 288.908C405.911 288.908 406.343 288.991 406.739 289.158C407.135 289.314 407.473 289.528 407.754 289.798C408.036 290.069 408.249 290.392 408.395 290.767C408.541 291.142 408.603 291.538 408.583 291.955H412.676C412.697 290.955 412.53 290.054 412.176 289.251C411.822 288.439 411.327 287.746 410.692 287.173C410.046 286.611 409.28 286.173 408.395 285.861C407.51 285.548 406.546 285.392 405.504 285.392C404.202 285.392 403.057 285.616 402.067 286.064C401.088 286.512 400.265 287.121 399.598 287.892C398.932 288.663 398.432 289.569 398.098 290.611C397.765 291.642 397.598 292.751 397.598 293.939V294.408C397.598 295.595 397.765 296.71 398.098 297.751C398.442 298.783 398.947 299.684 399.614 300.455C400.27 301.225 401.093 301.835 402.083 302.283C403.072 302.72 404.223 302.939 405.536 302.939C406.504 302.939 407.421 302.788 408.286 302.486C409.161 302.173 409.926 301.746 410.583 301.205C411.239 300.663 411.754 300.017 412.129 299.267C412.515 298.517 412.697 297.705 412.676 296.83H408.583C408.603 297.225 408.53 297.585 408.364 297.908C408.208 298.231 407.984 298.507 407.692 298.736C407.4 298.965 407.062 299.142 406.676 299.267C406.291 299.392 405.885 299.455 405.458 299.455ZM425.395 302.923C427.03 302.923 428.447 302.606 429.645 301.97C430.843 301.335 431.718 300.626 432.27 299.845L430.098 297.501C429.598 298.147 428.947 298.632 428.145 298.955C427.343 299.278 426.515 299.439 425.661 299.439C425.057 299.439 424.499 299.345 423.989 299.158C423.478 298.97 423.025 298.705 422.629 298.361C422.244 298.028 421.937 297.658 421.708 297.251C421.478 296.835 421.291 296.288 421.145 295.611V295.564H432.614V293.72C432.614 292.481 432.442 291.35 432.098 290.33C431.754 289.298 431.254 288.418 430.598 287.689C429.932 286.96 429.119 286.397 428.161 286.001C427.213 285.595 426.129 285.392 424.911 285.392C423.734 285.392 422.645 285.606 421.645 286.033C420.645 286.46 419.78 287.059 419.051 287.83C418.322 288.6 417.754 289.522 417.348 290.595C416.942 291.658 416.739 292.835 416.739 294.126V294.751C416.739 295.887 416.942 296.955 417.348 297.955C417.765 298.944 418.353 299.804 419.114 300.533C419.874 301.272 420.786 301.856 421.848 302.283C422.911 302.71 424.093 302.923 425.395 302.923ZM424.879 288.908C425.432 288.908 425.916 288.996 426.333 289.173C426.76 289.34 427.119 289.569 427.411 289.861C427.702 290.163 427.932 290.517 428.098 290.923C428.265 291.33 428.348 291.762 428.348 292.22V292.564H421.223C421.327 292.012 421.484 291.512 421.692 291.064C421.9 290.616 422.161 290.231 422.473 289.908C422.775 289.585 423.129 289.34 423.536 289.173C423.942 288.996 424.39 288.908 424.879 288.908ZM444.614 302.923C446.249 302.923 447.666 302.606 448.864 301.97C450.062 301.335 450.937 300.626 451.489 299.845L449.317 297.501C448.817 298.147 448.166 298.632 447.364 298.955C446.562 299.278 445.734 299.439 444.879 299.439C444.275 299.439 443.718 299.345 443.208 299.158C442.697 298.97 442.244 298.705 441.848 298.361C441.463 298.028 441.155 297.658 440.926 297.251C440.697 296.835 440.51 296.288 440.364 295.611V295.564H451.833V293.72C451.833 292.481 451.661 291.35 451.317 290.33C450.973 289.298 450.473 288.418 449.817 287.689C449.15 286.96 448.338 286.397 447.379 286.001C446.432 285.595 445.348 285.392 444.129 285.392C442.952 285.392 441.864 285.606 440.864 286.033C439.864 286.46 438.999 287.059 438.27 287.83C437.541 288.6 436.973 289.522 436.567 290.595C436.161 291.658 435.958 292.835 435.958 294.126V294.751C435.958 295.887 436.161 296.955 436.567 297.955C436.984 298.944 437.572 299.804 438.333 300.533C439.093 301.272 440.004 301.856 441.067 302.283C442.129 302.71 443.312 302.923 444.614 302.923ZM444.098 288.908C444.65 288.908 445.135 288.996 445.551 289.173C445.978 289.34 446.338 289.569 446.629 289.861C446.921 290.163 447.15 290.517 447.317 290.923C447.484 291.33 447.567 291.762 447.567 292.22V292.564H440.442C440.546 292.012 440.702 291.512 440.911 291.064C441.119 290.616 441.379 290.231 441.692 289.908C441.994 289.585 442.348 289.34 442.754 289.173C443.161 288.996 443.609 288.908 444.098 288.908ZM455.176 294.033V294.361C455.176 295.59 455.327 296.731 455.629 297.783C455.932 298.824 456.369 299.725 456.942 300.486C457.504 301.246 458.192 301.845 459.004 302.283C459.827 302.71 460.754 302.923 461.786 302.923C462.734 302.923 463.567 302.741 464.286 302.376C465.004 302.012 465.629 301.501 466.161 300.845L466.379 302.611H470.301V278.611H465.942V287.22C465.421 286.637 464.822 286.189 464.145 285.876C463.478 285.554 462.702 285.392 461.817 285.392C460.765 285.392 459.827 285.6 459.004 286.017C458.192 286.434 457.499 287.022 456.926 287.783C456.353 288.543 455.916 289.455 455.614 290.517C455.322 291.58 455.176 292.751 455.176 294.033ZM459.52 294.361V294.033C459.52 293.324 459.583 292.663 459.708 292.048C459.833 291.423 460.03 290.876 460.301 290.408C460.572 289.949 460.921 289.59 461.348 289.33C461.786 289.059 462.312 288.923 462.926 288.923C463.666 288.923 464.28 289.085 464.77 289.408C465.26 289.72 465.65 290.163 465.942 290.736V297.58C465.65 298.142 465.254 298.585 464.754 298.908C464.265 299.231 463.645 299.392 462.895 299.392C462.28 299.392 461.76 299.262 461.333 299.001C460.905 298.741 460.557 298.382 460.286 297.923C460.015 297.475 459.817 296.949 459.692 296.345C459.577 295.731 459.52 295.069 459.52 294.361ZM480.442 295.705H484.348C484.348 295.288 484.359 294.934 484.379 294.642C484.4 294.34 484.452 294.064 484.536 293.814C484.609 293.564 484.734 293.319 484.911 293.08C485.088 292.84 485.333 292.564 485.645 292.251C486.155 291.804 486.661 291.345 487.161 290.876C487.671 290.397 488.124 289.892 488.52 289.361C488.916 288.84 489.239 288.278 489.489 287.673C489.739 287.059 489.864 286.382 489.864 285.642C489.864 284.642 489.697 283.762 489.364 283.001C489.03 282.241 488.551 281.6 487.926 281.08C487.291 280.569 486.515 280.184 485.598 279.923C484.682 279.663 483.645 279.533 482.489 279.533C481.458 279.533 480.499 279.663 479.614 279.923C478.728 280.173 477.958 280.559 477.301 281.08C476.645 281.6 476.124 282.257 475.739 283.048C475.353 283.83 475.155 284.751 475.145 285.814H479.504C479.515 285.335 479.603 284.923 479.77 284.58C479.947 284.236 480.176 283.955 480.458 283.736C480.728 283.517 481.041 283.361 481.395 283.267C481.749 283.163 482.114 283.111 482.489 283.111C482.968 283.111 483.39 283.163 483.754 283.267C484.129 283.371 484.447 283.528 484.708 283.736C484.958 283.965 485.15 284.257 485.286 284.611C485.421 284.955 485.489 285.366 485.489 285.845C485.489 286.241 485.4 286.637 485.223 287.033C485.046 287.429 484.817 287.814 484.536 288.189C484.244 288.574 483.921 288.949 483.567 289.314C483.213 289.668 482.859 290.007 482.504 290.33C482.015 290.715 481.635 291.08 481.364 291.423C481.093 291.757 480.89 292.121 480.754 292.517C480.619 292.923 480.53 293.376 480.489 293.876C480.458 294.376 480.442 294.986 480.442 295.705ZM479.801 300.439C479.801 301.106 480.025 301.668 480.473 302.126C480.921 302.574 481.541 302.798 482.333 302.798C483.103 302.798 483.718 302.574 484.176 302.126C484.645 301.668 484.879 301.106 484.879 300.439C484.879 299.751 484.645 299.179 484.176 298.72C483.718 298.251 483.103 298.017 482.333 298.017C481.541 298.017 480.921 298.251 480.473 298.72C480.025 299.179 479.801 299.751 479.801 300.439Z" fill="#1FCA03"/>
<rect x="355.412" y="295.778" width="109.379" height="72.2299" rx="36.115" stroke="#1FCA03" stroke-width="5"/>
</svg>
