<svg width="205" height="325" viewBox="0 0 205 325" fill="none" xmlns="http://www.w3.org/2000/svg">
<path d="M205 68.2811C205 30.5935 169.946 0 87.4134 0C47.4784 0 21.2987 7.9809 0 17.292C0.443722 47.8854 1.77489 85.1296 3.10606 109.516H4.43723L82.9762 10.1978C85.1948 9.31106 86.0822 9.31107 87.8571 9.31107C92.7381 9.31107 106.494 27.0464 106.494 68.2811C106.494 116.166 96.7316 147.647 51.4719 162.722L90.0758 208.834H96.7316L144.21 139.666C178.377 122.817 205 99.7613 205 68.2811ZM93.6255 236.323C67.4459 236.323 49.2532 254.945 49.2532 280.662C49.2532 305.935 67.4459 325 93.6255 325C119.805 325 137.998 305.935 137.998 280.662C137.998 254.945 119.805 236.323 93.6255 236.323Z" fill="#CAFF87"/>
</svg>
