<svg width="612" height="248" viewBox="0 0 612 248" fill="none" xmlns="http://www.w3.org/2000/svg">
<rect x="15" y="133" width="112" height="17" fill="black"/>
<rect x="15" width="112" height="16" fill="black"/>
<rect y="16" width="15" height="117" fill="black"/>
<rect x="62" y="74" width="15" height="59" fill="black"/>
<rect x="127" y="16" width="16" height="117" fill="black"/>
<rect x="326.544" y="171.117" width="29.2813" height="41.6181" transform="rotate(90.2181 326.544 171.117)" fill="black"/>
<rect x="126.959" y="62.1597" width="71.2168" height="51.3963" transform="rotate(90.2181 126.959 62.1597)" fill="black"/>
<rect x="532" y="74.0359" width="15" height="59" fill="black"/>
<rect x="469" y="16" width="16" height="117" fill="black"/>
<rect x="596.959" y="62.1956" width="71.2168" height="51.3963" transform="rotate(90.2181 596.959 62.1956)" fill="black"/>
<rect x="597" y="16" width="15" height="117" fill="black"/>
<rect x="485" y="133" width="112" height="17" fill="black"/>
<rect x="485" y="2" width="112" height="16" fill="black"/>
<rect x="251" y="233" width="110" height="15" fill="black"/>
</svg>
